<svg xmlns="http://www.w3.org/2000/svg" xmlns:xlink="http://www.w3.org/1999/xlink" xmlns:lucid="lucid" width="1500" height="632"><g transform="translate(-120 -47.999999999949225)" lucid:page-tab-id="0_0"><path d="M400 360h380v300H400z" fill="none"/><use xlink:href="#a" transform="matrix(1,0,0,1,400,360) translate(17.80216049382716 21.077777777777783)"/><use xlink:href="#b" transform="matrix(1,0,0,1,400,360) translate(58.19043209876543 21.077777777777783)"/><use xlink:href="#c" transform="matrix(1,0,0,1,400,360) translate(202.8354938271605 21.077777777777783)"/><use xlink:href="#d" transform="matrix(1,0,0,1,400,360) translate(252.2114197530864 21.077777777777783)"/><use xlink:href="#e" transform="matrix(1,0,0,1,400,360) translate(290.40895061728395 21.077777777777783)"/><use xlink:href="#f" transform="matrix(1,0,0,1,400,360) translate(307.2608024691358 21.077777777777783)"/><use xlink:href="#g" transform="matrix(1,0,0,1,400,360) translate(1.034567901234567 45.34444444444445)"/><use xlink:href="#h" transform="matrix(1,0,0,1,400,360) translate(109.78518518518518 45.34444444444445)"/><use xlink:href="#i" transform="matrix(1,0,0,1,400,360) translate(151.24074074074073 45.34444444444445)"/><use xlink:href="#j" transform="matrix(1,0,0,1,400,360) translate(184.94444444444443 45.34444444444445)"/><use xlink:href="#c" transform="matrix(1,0,0,1,400,360) translate(308.2438271604939 45.34444444444445)"/><use xlink:href="#k" transform="matrix(1,0,0,1,400,360) translate(357.6197530864198 45.34444444444445)"/><use xlink:href="#l" transform="matrix(1,0,0,1,400,360) translate(31.81728395061728 69.61111111111111)"/><use xlink:href="#m" transform="matrix(1,0,0,1,400,360) translate(73.32901234567902 69.61111111111111)"/><use xlink:href="#i" transform="matrix(1,0,0,1,400,360) translate(95.79814814814814 69.61111111111111)"/><use xlink:href="#n" transform="matrix(1,0,0,1,400,360) translate(129.50185185185182 69.61111111111111)"/><use xlink:href="#o" transform="matrix(1,0,0,1,400,360) translate(240.49938271604938 69.61111111111111)"/><use xlink:href="#p" transform="matrix(1,0,0,1,400,360) translate(316.7820987654321 69.61111111111111)"/><use xlink:href="#q" transform="matrix(1,0,0,1,400,360) translate(333.633950617284 69.61111111111111)"/><use xlink:href="#r" transform="matrix(1,0,0,1,400,360) translate(17.380864197530883 93.87777777777778)"/><use xlink:href="#s" transform="matrix(1,0,0,1,400,360) translate(82.03580246913582 93.87777777777778)"/><use xlink:href="#t" transform="matrix(1,0,0,1,400,360) translate(105.57222222222224 93.87777777777778)"/><use xlink:href="#u" transform="matrix(1,0,0,1,400,360) translate(177.36111111111111 93.87777777777778)"/><use xlink:href="#v" transform="matrix(1,0,0,1,400,360) translate(199.83024691358025 93.87777777777778)"/><use xlink:href="#w" transform="matrix(1,0,0,1,400,360) translate(281.8425925925926 93.87777777777778)"/><use xlink:href="#x" transform="matrix(1,0,0,1,400,360) translate(298.69444444444446 93.87777777777778)"/><use xlink:href="#y" transform="matrix(1,0,0,1,400,360) translate(36.92901234567901 118.14444444444445)"/><use xlink:href="#z" transform="matrix(1,0,0,1,400,360) translate(135.62469135802468 118.14444444444445)"/><use xlink:href="#i" transform="matrix(1,0,0,1,400,360) translate(156.9141975308642 118.14444444444445)"/><use xlink:href="#A" transform="matrix(1,0,0,1,400,360) translate(190.61790123456788 118.14444444444445)"/><use xlink:href="#B" transform="matrix(1,0,0,1,400,360) translate(304.9858024691358 118.14444444444445)"/><use xlink:href="#g" transform="matrix(1,0,0,1,400,360) translate(46.42222222222222 142.4111111111111)"/><use xlink:href="#C" transform="matrix(1,0,0,1,400,360) translate(155.17283950617283 142.4111111111111)"/><use xlink:href="#D" transform="matrix(1,0,0,1,400,360) translate(175.33888888888887 142.4111111111111)"/><use xlink:href="#E" transform="matrix(1,0,0,1,400,360) translate(316.72592592592594 142.4111111111111)"/><use xlink:href="#F" transform="matrix(1,0,0,1,400,360) translate(6.0058641975309115 166.67777777777778)"/><use xlink:href="#v" transform="matrix(1,0,0,1,400,360) translate(125.99104938271607 166.67777777777778)"/><use xlink:href="#e" transform="matrix(1,0,0,1,400,360) translate(208.0033950617284 166.67777777777778)"/><use xlink:href="#G" transform="matrix(1,0,0,1,400,360) translate(224.85524691358026 166.67777777777778)"/><use xlink:href="#H" transform="matrix(1,0,0,1,400,360) translate(296.7003086419753 166.67777777777778)"/><use xlink:href="#I" transform="matrix(1,0,0,1,400,360) translate(330.1793209876543 166.67777777777778)"/><use xlink:href="#J" transform="matrix(1,0,0,1,400,360) translate(9.90987654320989 190.94444444444446)"/><use xlink:href="#K" transform="matrix(1,0,0,1,400,360) translate(32.37901234567902 190.94444444444446)"/><use xlink:href="#L" transform="matrix(1,0,0,1,400,360) translate(80.6314814814815 190.94444444444446)"/><use xlink:href="#M" transform="matrix(1,0,0,1,400,360) translate(119.95246913580249 190.94444444444446)"/><use xlink:href="#N" transform="matrix(1,0,0,1,400,360) translate(222.13086419753088 190.94444444444446)"/><use xlink:href="#s" transform="matrix(1,0,0,1,400,360) translate(278.19135802469134 190.94444444444446)"/><use xlink:href="#O" transform="matrix(1,0,0,1,400,360) translate(301.72777777777776 190.94444444444446)"/><use xlink:href="#P" transform="matrix(1,0,0,1,400,360) translate(317.4 190.94444444444446)"/><use xlink:href="#Q" transform="matrix(1,0,0,1,400,360) translate(21.593827160493845 215.2111111111111)"/><use xlink:href="#R" transform="matrix(1,0,0,1,400,360) translate(55.29753086419755 215.2111111111111)"/><use xlink:href="#S" transform="matrix(1,0,0,1,400,360) translate(83.38395061728397 215.2111111111111)"/><use xlink:href="#z" transform="matrix(1,0,0,1,400,360) translate(156.35246913580247 215.2111111111111)"/><use xlink:href="#T" transform="matrix(1,0,0,1,400,360) translate(177.64197530864197 215.2111111111111)"/><use xlink:href="#U" transform="matrix(1,0,0,1,400,360) translate(214.65987654320986 215.2111111111111)"/><use xlink:href="#V" transform="matrix(1,0,0,1,400,360) translate(309.03024691358024 215.2111111111111)"/><use xlink:href="#W" transform="matrix(1,0,0,1,400,360) translate(348.3512345679012 215.2111111111111)"/><use xlink:href="#X" transform="matrix(1,0,0,1,400,360) translate(25.245061728395086 239.47777777777776)"/><use xlink:href="#Y" transform="matrix(1,0,0,1,400,360) translate(69.00370370370374 239.47777777777776)"/><use xlink:href="#Z" transform="matrix(1,0,0,1,400,360) translate(118.43580246913582 239.47777777777776)"/><use xlink:href="#aa" transform="matrix(1,0,0,1,400,360) translate(194.7185185185185 239.47777777777776)"/><use xlink:href="#ab" transform="matrix(1,0,0,1,400,360) translate(305.37901234567903 239.47777777777776)"/><use xlink:href="#N" transform="matrix(1,0,0,1,400,360) translate(8.280864197530889 263.7444444444444)"/><use xlink:href="#H" transform="matrix(1,0,0,1,400,360) translate(64.34135802469137 263.7444444444444)"/><use xlink:href="#R" transform="matrix(1,0,0,1,400,360) translate(97.82037037037037 263.7444444444444)"/><use xlink:href="#M" transform="matrix(1,0,0,1,400,360) translate(125.90679012345679 263.7444444444444)"/><use xlink:href="#h" transform="matrix(1,0,0,1,400,360) translate(228.08518518518517 263.7444444444444)"/><use xlink:href="#ac" transform="matrix(1,0,0,1,400,360) translate(269.5407407407407 263.7444444444444)"/><use xlink:href="#ad" transform="matrix(1,0,0,1,400,360) translate(338.0154320987654 263.7444444444444)"/><use xlink:href="#ae" transform="matrix(1,0,0,1,400,360) translate(154.8358024691358 288.01111111111106)"/><path d="M358.3 76c0-4.42 3.57-8 8-8h1025.46c4.42 0 8 3.58 8 8v96c0 4.42-3.58 8-8 8H366.3c-4.43 0-8-3.58-8-8z" stroke="#000" stroke-opacity="0" stroke-width="2" fill="#fff" fill-opacity="0"/><g><use xlink:href="#af" transform="matrix(1,0,0,1,362.28663819633573,71.99999999994922) translate(387.997037037037 56.47027777777778)"/><use xlink:href="#ag" transform="matrix(1,0,0,1,362.28663819633573,71.99999999994922) translate(513.1353086419753 56.47027777777778)"/><use xlink:href="#ah" transform="matrix(1,0,0,1,362.28663819633573,71.99999999994922) translate(577.0883950617283 56.47027777777778)"/></g><path d="M572.4 176.35h618.25M572.42 176.35h-1.03M1190.62 176.35h1.03" stroke="#a9afb8" stroke-width="2" fill="none"/><path d="M140 260h400v29H140z" fill="#fff"/><path d="M140 288h400v29H140z" fill="#e6e6e6"/><path d="M140 316h400v28H140z" fill="#fff"/><path d="M140 220h400v40H140z" fill="#a3d977"/><path d="M140 225c0-2.76 2.24-5 5-5h390c2.76 0 5 2.24 5 5v114c0 2.76-2.24 5-5 5H145c-2.76 0-5-2.24-5-5zM140 260h400M447.56 260v84" stroke="#333" fill="none"/><g><use xlink:href="#ai" transform="matrix(1,0,0,1,150,220) translate(0 26.72222222222222)"/></g><g><use xlink:href="#aj" transform="matrix(1,0,0,1,145,262.5) translate(5.823 16)"/><use xlink:href="#ak" transform="matrix(1,0,0,1,145,262.5) translate(18 16)"/><use xlink:href="#al" transform="matrix(1,0,0,1,145,262.5) translate(22.896 16)"/></g><g><use xlink:href="#am" transform="matrix(1,0,0,1,452.5555555555556,262.5) translate(0 16)"/></g><g><use xlink:href="#an" transform="matrix(1,0,0,1,145,290.5) translate(0 16)"/></g><g><use xlink:href="#ao" transform="matrix(1,0,0,1,452.5555555555556,290.5) translate(0 16)"/></g><g><use xlink:href="#ap" transform="matrix(1,0,0,1,145,318.5) translate(0 16)"/></g><g><use xlink:href="#ao" transform="matrix(1,0,0,1,452.5555555555556,318.5) translate(0 16)"/></g><path d="M1200 260h400v29h-400z" fill="#fff"/><path d="M1200 288h400v29h-400z" fill="#e6e6e6"/><path d="M1200 316h400v28h-400z" fill="#fff"/><path d="M1200 220h400v40h-400z" fill="#83bbe5"/><path d="M1200 225c0-2.76 2.24-5 5-5h390c2.76 0 5 2.24 5 5v114c0 2.76-2.24 5-5 5h-390c-2.76 0-5-2.24-5-5zM1200 260h400M1502.22 260v84" stroke="#333" fill="none"/><g><use xlink:href="#aq" transform="matrix(1,0,0,1,1210,220) translate(0 26.72222222222222)"/></g><g><use xlink:href="#aj" transform="matrix(1,0,0,1,1205,262.5) translate(5.823 16)"/><use xlink:href="#ar" transform="matrix(1,0,0,1,1205,262.5) translate(18 16)"/></g><g><use xlink:href="#ao" transform="matrix(1,0,0,1,1507.2222222222224,262.5) translate(0 16)"/></g><g><use xlink:href="#as" transform="matrix(1,0,0,1,1205,290.5) translate(0 16)"/></g><g><use xlink:href="#at" transform="matrix(1,0,0,1,1507.2222222222224,290.5) translate(0 16)"/></g><g><use xlink:href="#au" transform="matrix(1,0,0,1,1205,318.5) translate(0 16)"/></g><g><use xlink:href="#av" transform="matrix(1,0,0,1,1507.2222222222224,318.5) translate(0 16)"/></g><path d="M679.02 260h400v29h-400z" fill="#fff"/><path d="M679.02 288h400v29h-400z" fill="#e6e6e6"/><path d="M679.02 316h400v28h-400z" fill="#fff"/><path d="M679.02 220h400v40h-400z" fill="#b391b5"/><path d="M679.02 225c0-2.76 2.24-5 5-5h390c2.77 0 5 2.24 5 5v114c0 2.76-2.23 5-5 5h-390c-2.76 0-5-2.24-5-5zM679.02 260h400M980.9 260v84" stroke="#333" fill="none"/><g><use xlink:href="#aw" transform="matrix(1,0,0,1,689.0245648367733,220) translate(0 26.72222222222222)"/></g><g><use xlink:href="#aj" transform="matrix(1,0,0,1,684.0245648367733,262.5) translate(5.823 16)"/><use xlink:href="#ax" transform="matrix(1,0,0,1,684.0245648367733,262.5) translate(18 16)"/></g><g><use xlink:href="#ao" transform="matrix(1,0,0,1,985.8888888888888,262.5) translate(0 16)"/></g><g><use xlink:href="#ay" transform="matrix(1,0,0,1,684.0245648367733,290.5) translate(0 16)"/></g><g><use xlink:href="#am" transform="matrix(1,0,0,1,985.8888888888888,290.5) translate(0 16)"/></g><g><use xlink:href="#an" transform="matrix(1,0,0,1,684.0245648367733,318.5) translate(0 16)"/></g><g><use xlink:href="#am" transform="matrix(1,0,0,1,985.8888888888888,318.5) translate(0 16)"/></g><path d="M560.5 302.05h37c6.64 0 12 5.37 12 12v4.07c0 6.63 5.38 12 12 12h37.02" stroke="#333" fill="none"/><path d="M550.5 312.05v-20M540.5 302.05h20M560.5 312.05v-20" stroke="#333" fill="#fff"/><path d="M678.3 340.12l-20-10 20-10" stroke="#333" fill="#fff" fill-opacity="0"/><path d="M678.3 330.12h-20M658.3 320.12v20" stroke="#333" fill="#fff"/><path d="M1099.52 273.98h28c6.62 0 12 5.37 12 12v32.14c0 6.63 5.36 12 12 12h27.98" stroke="#333" fill="none"/><path d="M1079.75 263.98l20 10-20 10" stroke="#333" fill="#fff" fill-opacity="0"/><path d="M1079.75 273.98h20M1099.75 283.98v-20" stroke="#333" fill="#fff"/><path d="M1199.28 340.12l-20-10 20-10" stroke="#333" fill="#fff" fill-opacity="0"/><path d="M1199.28 330.12h-20M1179.28 320.12v20" stroke="#333" fill="#fff"/><path d="M960 360h380v220H960z" fill="none"/><g><use xlink:href="#a" transform="matrix(1,0,0,1,960,360) translate(31.87345679012347 16.97777777777779)"/><use xlink:href="#j" transform="matrix(1,0,0,1,960,360) translate(72.26172839506174 16.97777777777779)"/><use xlink:href="#c" transform="matrix(1,0,0,1,960,360) translate(195.56111111111113 16.97777777777779)"/><use xlink:href="#C" transform="matrix(1,0,0,1,960,360) translate(244.93703703703704 16.97777777777779)"/><use xlink:href="#t" transform="matrix(1,0,0,1,960,360) translate(265.1030864197531 16.97777777777779)"/><use xlink:href="#az" transform="matrix(1,0,0,1,960,360) translate(336.8919753086419 16.97777777777779)"/><use xlink:href="#aA" transform="matrix(1,0,0,1,960,360) translate(1.9895061728394978 41.244444444444454)"/><use xlink:href="#aB" transform="matrix(1,0,0,1,960,360) translate(69.28456790123455 41.244444444444454)"/><use xlink:href="#i" transform="matrix(1,0,0,1,960,360) translate(91.75370370370368 41.244444444444454)"/><use xlink:href="#aC" transform="matrix(1,0,0,1,960,360) translate(125.45740740740737 41.244444444444454)"/><use xlink:href="#c" transform="matrix(1,0,0,1,960,360) translate(273.5851851851852 41.244444444444454)"/><use xlink:href="#aD" transform="matrix(1,0,0,1,960,360) translate(322.9611111111111 41.244444444444454)"/><use xlink:href="#aE" transform="matrix(1,0,0,1,960,360) translate(349.92407407407404 41.244444444444454)"/><use xlink:href="#aF" transform="matrix(1,0,0,1,960,360) translate(8.84259259259261 65.51111111111112)"/><use xlink:href="#o" transform="matrix(1,0,0,1,960,360) translate(126.63703703703703 65.51111111111112)"/><use xlink:href="#p" transform="matrix(1,0,0,1,960,360) translate(202.91975308641975 65.51111111111112)"/><use xlink:href="#C" transform="matrix(1,0,0,1,960,360) translate(219.7716049382716 65.51111111111112)"/><use xlink:href="#e" transform="matrix(1,0,0,1,960,360) translate(239.93765432098763 65.51111111111112)"/><use xlink:href="#aG" transform="matrix(1,0,0,1,960,360) translate(256.7895061728395 65.51111111111112)"/><use xlink:href="#aB" transform="matrix(1,0,0,1,960,360) translate(1.4839506172839947 89.77777777777779)"/><use xlink:href="#F" transform="matrix(1,0,0,1,960,360) translate(23.953086419753127 89.77777777777779)"/><use xlink:href="#g" transform="matrix(1,0,0,1,960,360) translate(143.93827160493828 89.77777777777779)"/><use xlink:href="#v" transform="matrix(1,0,0,1,960,360) translate(252.6888888888889 89.77777777777779)"/><use xlink:href="#aH" transform="matrix(1,0,0,1,960,360) translate(334.7012345679012 89.77777777777779)"/><use xlink:href="#N" transform="matrix(1,0,0,1,960,360) translate(4.320679012345721 114.04444444444445)"/><use xlink:href="#aI" transform="matrix(1,0,0,1,960,360) translate(60.3811728395062 114.04444444444445)"/><use xlink:href="#H" transform="matrix(1,0,0,1,960,360) translate(116.49783950617287 114.04444444444445)"/><use xlink:href="#Y" transform="matrix(1,0,0,1,960,360) translate(149.97685185185188 114.04444444444445)"/><use xlink:href="#J" transform="matrix(1,0,0,1,960,360) translate(199.40895061728398 114.04444444444445)"/><use xlink:href="#K" transform="matrix(1,0,0,1,960,360) translate(221.87808641975312 114.04444444444445)"/><use xlink:href="#L" transform="matrix(1,0,0,1,960,360) translate(270.1305555555556 114.04444444444445)"/><use xlink:href="#aJ" transform="matrix(1,0,0,1,960,360) translate(309.4515432098765 114.04444444444445)"/><use xlink:href="#aK" transform="matrix(1,0,0,1,960,360) translate(19.375000000000057 138.31111111111113)"/><use xlink:href="#aL" transform="matrix(1,0,0,1,960,360) translate(53.07870370370376 138.31111111111113)"/><use xlink:href="#Y" transform="matrix(1,0,0,1,960,360) translate(106.9484567901235 138.31111111111113)"/><use xlink:href="#aM" transform="matrix(1,0,0,1,960,360) translate(156.3805555555556 138.31111111111113)"/><use xlink:href="#aN" transform="matrix(1,0,0,1,960,360) translate(227.04598765432098 138.31111111111113)"/><use xlink:href="#aO" transform="matrix(1,0,0,1,960,360) translate(303.3848765432098 138.31111111111113)"/><use xlink:href="#aP" transform="matrix(1,0,0,1,960,360) translate(19.375 162.57777777777778)"/><use xlink:href="#aQ" transform="matrix(1,0,0,1,960,360) translate(85.60277777777776 162.57777777777778)"/><use xlink:href="#V" transform="matrix(1,0,0,1,960,360) translate(140.65216049382715 162.57777777777778)"/><use xlink:href="#aR" transform="matrix(1,0,0,1,960,360) translate(179.97314814814814 162.57777777777778)"/><use xlink:href="#e" transform="matrix(1,0,0,1,960,360) translate(283.16265432098766 162.57777777777778)"/><use xlink:href="#aS" transform="matrix(1,0,0,1,960,360) translate(300.0145061728395 162.57777777777778)"/><use xlink:href="#aL" transform="matrix(1,0,0,1,960,360) translate(7.662962962963007 186.84444444444446)"/><use xlink:href="#aT" transform="matrix(1,0,0,1,960,360) translate(61.53271604938275 186.84444444444446)"/><use xlink:href="#aB" transform="matrix(1,0,0,1,960,360) translate(155.79074074074074 186.84444444444446)"/><use xlink:href="#aM" transform="matrix(1,0,0,1,960,360) translate(178.25987654320988 186.84444444444446)"/><use xlink:href="#aU" transform="matrix(1,0,0,1,960,360) translate(248.9253086419753 186.84444444444446)"/><use xlink:href="#s" transform="matrix(1,0,0,1,960,360) translate(315.0969135802469 186.84444444444446)"/><use xlink:href="#ad" transform="matrix(1,0,0,1,960,360) translate(338.6333333333333 186.84444444444446)"/><use xlink:href="#N" transform="matrix(1,0,0,1,960,360) translate(85.06913580246915 211.11111111111111)"/><use xlink:href="#aV" transform="matrix(1,0,0,1,960,360) translate(141.12962962962962 211.11111111111111)"/><use xlink:href="#aM" transform="matrix(1,0,0,1,960,360) translate(169.21604938271605 211.11111111111111)"/><use xlink:href="#aW" transform="matrix(1,0,0,1,960,360) translate(239.88148148148144 211.11111111111111)"/></g><defs><path fill="#333" d="M127-220V0H93v-220H8v-28h204v28h-85" id="aX"/><path fill="#333" d="M106-169C34-169 62-67 57 0H25v-261h32l-1 103c12-21 28-36 61-36 89 0 53 116 60 194h-32v-121c2-32-8-49-39-48" id="aY"/><path fill="#333" d="M100-194c63 0 86 42 84 106H49c0 40 14 67 53 68 26 1 43-12 49-29l28 8c-11 28-37 45-77 45C44 4 14-33 15-96c1-61 26-98 85-98zm52 81c6-60-76-77-97-28-3 7-6 17-6 28h103" id="aZ"/><g id="a"><use transform="matrix(0.056172839506172835,0,0,0.056172839506172835,0,0)" xlink:href="#aX"/><use transform="matrix(0.056172839506172835,0,0,0.056172839506172835,12.30185185185185,0)" xlink:href="#aY"/><use transform="matrix(0.056172839506172835,0,0,0.056172839506172835,23.536419753086417,0)" xlink:href="#aZ"/></g><path fill="#333" d="M96-169c-40 0-48 33-48 73s9 75 48 75c24 0 41-14 43-38l32 2c-6 37-31 61-74 61-59 0-76-41-82-99-10-93 101-131 147-64 4 7 5 14 7 22l-32 3c-4-21-16-35-41-35" id="ba"/><path fill="#333" d="M114-163C36-179 61-72 57 0H25l-1-190h30c1 12-1 29 2 39 6-27 23-49 58-41v29" id="bb"/><path fill="#333" d="M24-231v-30h32v30H24zM24 0v-190h32V0H24" id="bc"/><path fill="#333" d="M135-143c-3-34-86-38-87 0 15 53 115 12 119 90S17 21 10-45l28-5c4 36 97 45 98 0-10-56-113-15-118-90-4-57 82-63 122-42 12 7 21 19 24 35" id="bd"/><path fill="#333" d="M-5 72V49h209v23H-5" id="be"/><path fill="#333" d="M100-194c62-1 85 37 85 99 1 63-27 99-86 99S16-35 15-95c0-66 28-99 85-99zM99-20c44 1 53-31 53-75 0-43-8-75-51-75s-53 32-53 75 10 74 51 75" id="bf"/><path fill="#333" d="M84 4C-5 8 30-112 23-190h32v120c0 31 7 50 39 49 72-2 45-101 50-169h31l1 190h-30c-1-10 1-25-2-33-11 22-28 36-60 37" id="bg"/><path fill="#333" d="M117-194c89-4 53 116 60 194h-32v-121c0-31-8-49-39-48C34-167 62-67 57 0H25l-1-190h30c1 10-1 24 2 32 11-22 29-35 61-36" id="bh"/><path fill="#333" d="M59-47c-2 24 18 29 38 22v24C64 9 27 4 27-40v-127H5v-23h24l9-43h21v43h35v23H59v120" id="bi"/><g id="b"><use transform="matrix(0.056172839506172835,0,0,0.056172839506172835,0,0)" xlink:href="#ba"/><use transform="matrix(0.056172839506172835,0,0,0.056172839506172835,10.11111111111111,0)" xlink:href="#bb"/><use transform="matrix(0.056172839506172835,0,0,0.056172839506172835,16.79567901234568,0)" xlink:href="#bc"/><use transform="matrix(0.056172839506172835,0,0,0.056172839506172835,21.233333333333334,0)" xlink:href="#bd"/><use transform="matrix(0.056172839506172835,0,0,0.056172839506172835,31.34444444444444,0)" xlink:href="#bc"/><use transform="matrix(0.056172839506172835,0,0,0.056172839506172835,35.782098765432096,0)" xlink:href="#bd"/><use transform="matrix(0.056172839506172835,0,0,0.056172839506172835,45.89320987654321,0)" xlink:href="#be"/><use transform="matrix(0.056172839506172835,0,0,0.056172839506172835,57.12777777777778,0)" xlink:href="#ba"/><use transform="matrix(0.056172839506172835,0,0,0.056172839506172835,67.2388888888889,0)" xlink:href="#bf"/><use transform="matrix(0.056172839506172835,0,0,0.056172839506172835,78.47345679012346,0)" xlink:href="#bg"/><use transform="matrix(0.056172839506172835,0,0,0.056172839506172835,89.70802469135803,0)" xlink:href="#bh"/><use transform="matrix(0.056172839506172835,0,0,0.056172839506172835,100.9425925925926,0)" xlink:href="#bi"/><use transform="matrix(0.056172839506172835,0,0,0.056172839506172835,106.55987654320988,0)" xlink:href="#bb"/><use transform="matrix(0.056172839506172835,0,0,0.056172839506172835,113.24444444444445,0)" xlink:href="#bc"/><use transform="matrix(0.056172839506172835,0,0,0.056172839506172835,117.68209876543209,0)" xlink:href="#aZ"/><use transform="matrix(0.056172839506172835,0,0,0.056172839506172835,128.91666666666666,0)" xlink:href="#bd"/></g><path fill="#333" d="M141-36C126-15 110 5 73 4 37 3 15-17 15-53c-1-64 63-63 125-63 3-35-9-54-41-54-24 1-41 7-42 31l-33-3c5-37 33-52 76-52 45 0 72 20 72 64v82c-1 20 7 32 28 27v20c-31 9-61-2-59-35zM48-53c0 20 12 33 32 33 41-3 63-29 60-74-43 2-92-5-92 41" id="bj"/><path fill="#333" d="M115-194c53 0 69 39 70 98 0 66-23 100-70 100C84 3 66-7 56-30L54 0H23l1-261h32v101c10-23 28-34 59-34zm-8 174c40 0 45-34 45-75 0-40-5-75-45-74-42 0-51 32-51 76 0 43 10 73 51 73" id="bk"/><path fill="#333" d="M24 0v-261h32V0H24" id="bl"/><g id="c"><use transform="matrix(0.056172839506172835,0,0,0.056172839506172835,0,0)" xlink:href="#bi"/><use transform="matrix(0.056172839506172835,0,0,0.056172839506172835,5.617283950617283,0)" xlink:href="#bj"/><use transform="matrix(0.056172839506172835,0,0,0.056172839506172835,16.851851851851848,0)" xlink:href="#bk"/><use transform="matrix(0.056172839506172835,0,0,0.056172839506172835,28.086419753086414,0)" xlink:href="#bl"/><use transform="matrix(0.056172839506172835,0,0,0.056172839506172835,32.524074074074065,0)" xlink:href="#aZ"/></g><g id="d"><use transform="matrix(0.056172839506172835,0,0,0.056172839506172835,0,0)" xlink:href="#aY"/><use transform="matrix(0.056172839506172835,0,0,0.056172839506172835,11.234567901234566,0)" xlink:href="#bj"/><use transform="matrix(0.056172839506172835,0,0,0.056172839506172835,22.469135802469133,0)" xlink:href="#bd"/></g><use transform="matrix(0.056172839506172835,0,0,0.056172839506172835,0,0)" xlink:href="#bj" id="e"/><path fill="#333" d="M179-190L93 31C79 59 56 82 12 73V49c39 6 53-20 64-50L1-190h34L92-34l54-156h33" id="bm"/><g id="f"><use transform="matrix(0.056172839506172835,0,0,0.056172839506172835,0,0)" xlink:href="#bk"/><use transform="matrix(0.056172839506172835,0,0,0.056172839506172835,11.234567901234566,0)" xlink:href="#bc"/><use transform="matrix(0.056172839506172835,0,0,0.056172839506172835,15.67222222222222,0)" xlink:href="#bh"/><use transform="matrix(0.056172839506172835,0,0,0.056172839506172835,26.906790123456787,0)" xlink:href="#bj"/><use transform="matrix(0.056172839506172835,0,0,0.056172839506172835,38.14135802469136,0)" xlink:href="#bb"/><use transform="matrix(0.056172839506172835,0,0,0.056172839506172835,44.82592592592592,0)" xlink:href="#bm"/></g><path fill="#333" d="M115-194c55 1 70 41 70 98S169 2 115 4C84 4 66-9 55-30l1 105H24l-1-265h31l2 30c10-21 28-34 59-34zm-8 174c40 0 45-34 45-75s-6-73-45-74c-42 0-51 32-51 76 0 43 10 73 51 73" id="bn"/><g id="g"><use transform="matrix(0.056172839506172835,0,0,0.056172839506172835,0,0)" xlink:href="#bb"/><use transform="matrix(0.056172839506172835,0,0,0.056172839506172835,6.684567901234567,0)" xlink:href="#aZ"/><use transform="matrix(0.056172839506172835,0,0,0.056172839506172835,17.919135802469135,0)" xlink:href="#bl"/><use transform="matrix(0.056172839506172835,0,0,0.056172839506172835,22.35679012345679,0)" xlink:href="#bj"/><use transform="matrix(0.056172839506172835,0,0,0.056172839506172835,33.59135802469136,0)" xlink:href="#bi"/><use transform="matrix(0.056172839506172835,0,0,0.056172839506172835,39.208641975308645,0)" xlink:href="#bc"/><use transform="matrix(0.056172839506172835,0,0,0.056172839506172835,43.6462962962963,0)" xlink:href="#bf"/><use transform="matrix(0.056172839506172835,0,0,0.056172839506172835,54.88086419753087,0)" xlink:href="#bh"/><use transform="matrix(0.056172839506172835,0,0,0.056172839506172835,66.11543209876544,0)" xlink:href="#bd"/><use transform="matrix(0.056172839506172835,0,0,0.056172839506172835,76.22654320987655,0)" xlink:href="#aY"/><use transform="matrix(0.056172839506172835,0,0,0.056172839506172835,87.46111111111112,0)" xlink:href="#bc"/><use transform="matrix(0.056172839506172835,0,0,0.056172839506172835,91.89876543209877,0)" xlink:href="#bn"/></g><path fill="#333" d="M206 0h-36l-40-164L89 0H53L-1-190h32L70-26l43-164h34l41 164 42-164h31" id="bo"/><g id="h"><use transform="matrix(0.056172839506172835,0,0,0.056172839506172835,0,0)" xlink:href="#bo"/><use transform="matrix(0.056172839506172835,0,0,0.056172839506172835,14.548765432098763,0)" xlink:href="#bc"/><use transform="matrix(0.056172839506172835,0,0,0.056172839506172835,18.986419753086416,0)" xlink:href="#bi"/><use transform="matrix(0.056172839506172835,0,0,0.056172839506172835,24.6037037037037,0)" xlink:href="#aY"/></g><g id="i"><use transform="matrix(0.056172839506172835,0,0,0.056172839506172835,0,0)" xlink:href="#bi"/><use transform="matrix(0.056172839506172835,0,0,0.056172839506172835,5.617283950617283,0)" xlink:href="#aY"/><use transform="matrix(0.056172839506172835,0,0,0.056172839506172835,16.851851851851848,0)" xlink:href="#aZ"/></g><path fill="#333" d="M101-234c-31-9-42 10-38 44h38v23H63V0H32v-167H5v-23h27c-7-52 17-82 69-68v24" id="bp"/><path fill="#333" d="M177-190C167-65 218 103 67 71c-23-6-38-20-44-43l32-5c15 47 100 32 89-28v-30C133-14 115 1 83 1 29 1 15-40 15-95c0-56 16-97 71-98 29-1 48 16 59 35 1-10 0-23 2-32h30zM94-22c36 0 50-32 50-73 0-42-14-75-50-75-39 0-46 34-46 75s6 73 46 73" id="bq"/><g id="j"><use transform="matrix(0.056172839506172835,0,0,0.056172839506172835,0,0)" xlink:href="#ba"/><use transform="matrix(0.056172839506172835,0,0,0.056172839506172835,10.11111111111111,0)" xlink:href="#bb"/><use transform="matrix(0.056172839506172835,0,0,0.056172839506172835,16.79567901234568,0)" xlink:href="#bc"/><use transform="matrix(0.056172839506172835,0,0,0.056172839506172835,21.233333333333334,0)" xlink:href="#bd"/><use transform="matrix(0.056172839506172835,0,0,0.056172839506172835,31.34444444444444,0)" xlink:href="#bc"/><use transform="matrix(0.056172839506172835,0,0,0.056172839506172835,35.782098765432096,0)" xlink:href="#bd"/><use transform="matrix(0.056172839506172835,0,0,0.056172839506172835,45.89320987654321,0)" xlink:href="#be"/><use transform="matrix(0.056172839506172835,0,0,0.056172839506172835,57.12777777777778,0)" xlink:href="#bp"/><use transform="matrix(0.056172839506172835,0,0,0.056172839506172835,62.74506172839507,0)" xlink:href="#bc"/><use transform="matrix(0.056172839506172835,0,0,0.056172839506172835,67.18271604938272,0)" xlink:href="#bq"/><use transform="matrix(0.056172839506172835,0,0,0.056172839506172835,78.41728395061729,0)" xlink:href="#bg"/><use transform="matrix(0.056172839506172835,0,0,0.056172839506172835,89.65185185185186,0)" xlink:href="#bb"/><use transform="matrix(0.056172839506172835,0,0,0.056172839506172835,96.33641975308643,0)" xlink:href="#aZ"/><use transform="matrix(0.056172839506172835,0,0,0.056172839506172835,107.570987654321,0)" xlink:href="#bd"/></g><g id="k"><use transform="matrix(0.056172839506172835,0,0,0.056172839506172835,0,0)" xlink:href="#bk"/><use transform="matrix(0.056172839506172835,0,0,0.056172839506172835,11.234567901234566,0)" xlink:href="#bm"/></g><g id="l"><use transform="matrix(0.056172839506172835,0,0,0.056172839506172835,0,0)" xlink:href="#bo"/><use transform="matrix(0.056172839506172835,0,0,0.056172839506172835,14.548765432098763,0)" xlink:href="#bj"/><use transform="matrix(0.056172839506172835,0,0,0.056172839506172835,25.78333333333333,0)" xlink:href="#bm"/></g><g id="m"><use transform="matrix(0.056172839506172835,0,0,0.056172839506172835,0,0)" xlink:href="#bf"/><use transform="matrix(0.056172839506172835,0,0,0.056172839506172835,11.234567901234566,0)" xlink:href="#bp"/></g><path fill="#333" d="M85-194c31 0 48 13 60 33l-1-100h32l1 261h-30c-2-10 0-23-3-31C134-8 116 4 85 4 32 4 16-35 15-94c0-66 23-100 70-100zm9 24c-40 0-46 34-46 75 0 40 6 74 45 74 42 0 51-32 51-76 0-42-9-74-50-73" id="br"/><path fill="#333" d="M141 0L90-78 38 0H4l68-98-65-92h35l48 74 47-74h35l-64 92 68 98h-35" id="bs"/><g id="n"><use transform="matrix(0.056172839506172835,0,0,0.056172839506172835,0,0)" xlink:href="#ba"/><use transform="matrix(0.056172839506172835,0,0,0.056172839506172835,10.11111111111111,0)" xlink:href="#bb"/><use transform="matrix(0.056172839506172835,0,0,0.056172839506172835,16.79567901234568,0)" xlink:href="#bc"/><use transform="matrix(0.056172839506172835,0,0,0.056172839506172835,21.233333333333334,0)" xlink:href="#bd"/><use transform="matrix(0.056172839506172835,0,0,0.056172839506172835,31.34444444444444,0)" xlink:href="#bc"/><use transform="matrix(0.056172839506172835,0,0,0.056172839506172835,35.782098765432096,0)" xlink:href="#bd"/><use transform="matrix(0.056172839506172835,0,0,0.056172839506172835,45.89320987654321,0)" xlink:href="#be"/><use transform="matrix(0.056172839506172835,0,0,0.056172839506172835,57.12777777777778,0)" xlink:href="#bc"/><use transform="matrix(0.056172839506172835,0,0,0.056172839506172835,61.56543209876544,0)" xlink:href="#bh"/><use transform="matrix(0.056172839506172835,0,0,0.056172839506172835,72.8,0)" xlink:href="#br"/><use transform="matrix(0.056172839506172835,0,0,0.056172839506172835,84.03456790123457,0)" xlink:href="#aZ"/><use transform="matrix(0.056172839506172835,0,0,0.056172839506172835,95.26913580246914,0)" xlink:href="#bs"/></g><path fill="#333" d="M210-169c-67 3-38 105-44 169h-31v-121c0-29-5-50-35-48C34-165 62-65 56 0H25l-1-190h30c1 10-1 24 2 32 10-44 99-50 107 0 11-21 27-35 58-36 85-2 47 119 55 194h-31v-121c0-29-5-49-35-48" id="bt"/><path fill="#333" d="M33 0v-38h34V0H33" id="bu"/><g id="o"><use transform="matrix(0.056172839506172835,0,0,0.056172839506172835,0,0)" xlink:href="#ba"/><use transform="matrix(0.056172839506172835,0,0,0.056172839506172835,10.11111111111111,0)" xlink:href="#bf"/><use transform="matrix(0.056172839506172835,0,0,0.056172839506172835,21.345679012345677,0)" xlink:href="#bl"/><use transform="matrix(0.056172839506172835,0,0,0.056172839506172835,25.78333333333333,0)" xlink:href="#bg"/><use transform="matrix(0.056172839506172835,0,0,0.056172839506172835,37.0179012345679,0)" xlink:href="#bt"/><use transform="matrix(0.056172839506172835,0,0,0.056172839506172835,53.813580246913574,0)" xlink:href="#bh"/><use transform="matrix(0.056172839506172835,0,0,0.056172839506172835,65.04814814814814,0)" xlink:href="#bu"/></g><path fill="#333" d="M33 0v-248h34V0H33" id="bv"/><g id="p"><use transform="matrix(0.056172839506172835,0,0,0.056172839506172835,0,0)" xlink:href="#bv"/><use transform="matrix(0.056172839506172835,0,0,0.056172839506172835,5.617283950617283,0)" xlink:href="#bi"/></g><g id="q"><use transform="matrix(0.056172839506172835,0,0,0.056172839506172835,0,0)" xlink:href="#bc"/><use transform="matrix(0.056172839506172835,0,0,0.056172839506172835,4.4376543209876536,0)" xlink:href="#bd"/></g><path fill="#333" d="M68-38c1 34 0 65-14 84H32c9-13 17-26 17-46H33v-38h35" id="bw"/><g id="r"><use transform="matrix(0.056172839506172835,0,0,0.056172839506172835,0,0)" xlink:href="#bk"/><use transform="matrix(0.056172839506172835,0,0,0.056172839506172835,11.234567901234566,0)" xlink:href="#bc"/><use transform="matrix(0.056172839506172835,0,0,0.056172839506172835,15.67222222222222,0)" xlink:href="#bh"/><use transform="matrix(0.056172839506172835,0,0,0.056172839506172835,26.906790123456787,0)" xlink:href="#bj"/><use transform="matrix(0.056172839506172835,0,0,0.056172839506172835,38.14135802469136,0)" xlink:href="#bb"/><use transform="matrix(0.056172839506172835,0,0,0.056172839506172835,44.82592592592592,0)" xlink:href="#bm"/><use transform="matrix(0.056172839506172835,0,0,0.056172839506172835,53.420370370370364,0)" xlink:href="#bw"/></g><g id="s"><use transform="matrix(0.056172839506172835,0,0,0.056172839506172835,0,0)" xlink:href="#bf"/><use transform="matrix(0.056172839506172835,0,0,0.056172839506172835,11.234567901234566,0)" xlink:href="#bb"/></g><path fill="#333" d="M30-248c118-7 216 8 213 122C240-48 200 0 122 0H30v-248zM63-27c89 8 146-16 146-99s-60-101-146-95v194" id="bx"/><g id="t"><use transform="matrix(0.056172839506172835,0,0,0.056172839506172835,0,0)" xlink:href="#bx"/><use transform="matrix(0.056172839506172835,0,0,0.056172839506172835,14.548765432098763,0)" xlink:href="#aZ"/><use transform="matrix(0.056172839506172835,0,0,0.056172839506172835,25.78333333333333,0)" xlink:href="#bq"/><use transform="matrix(0.056172839506172835,0,0,0.056172839506172835,37.0179012345679,0)" xlink:href="#bb"/><use transform="matrix(0.056172839506172835,0,0,0.056172839506172835,43.70246913580247,0)" xlink:href="#aZ"/><use transform="matrix(0.056172839506172835,0,0,0.056172839506172835,54.93703703703703,0)" xlink:href="#aZ"/></g><path fill="#333" d="M101-251c82-7 93 87 43 132L82-64C71-53 59-42 53-27h129V0H18c2-99 128-94 128-182 0-28-16-43-45-43s-46 15-49 41l-32-3c6-41 34-60 81-64" id="by"/><g id="u"><use transform="matrix(0.056172839506172835,0,0,0.056172839506172835,0,0)" xlink:href="#by"/><use transform="matrix(0.056172839506172835,0,0,0.056172839506172835,11.234567901234566,0)" xlink:href="#bw"/></g><g id="v"><use transform="matrix(0.056172839506172835,0,0,0.056172839506172835,0,0)" xlink:href="#bk"/><use transform="matrix(0.056172839506172835,0,0,0.056172839506172835,11.234567901234566,0)" xlink:href="#aZ"/><use transform="matrix(0.056172839506172835,0,0,0.056172839506172835,22.469135802469133,0)" xlink:href="#ba"/><use transform="matrix(0.056172839506172835,0,0,0.056172839506172835,32.58024691358024,0)" xlink:href="#bj"/><use transform="matrix(0.056172839506172835,0,0,0.056172839506172835,43.81481481481481,0)" xlink:href="#bg"/><use transform="matrix(0.056172839506172835,0,0,0.056172839506172835,55.04938271604938,0)" xlink:href="#bd"/><use transform="matrix(0.056172839506172835,0,0,0.056172839506172835,65.1604938271605,0)" xlink:href="#aZ"/></g><use transform="matrix(0.056172839506172835,0,0,0.056172839506172835,0,0)" xlink:href="#by" id="w"/><g id="x"><use transform="matrix(0.056172839506172835,0,0,0.056172839506172835,0,0)" xlink:href="#aZ"/><use transform="matrix(0.056172839506172835,0,0,0.056172839506172835,11.234567901234566,0)" xlink:href="#bh"/><use transform="matrix(0.056172839506172835,0,0,0.056172839506172835,22.469135802469133,0)" xlink:href="#bi"/><use transform="matrix(0.056172839506172835,0,0,0.056172839506172835,28.086419753086417,0)" xlink:href="#bc"/><use transform="matrix(0.056172839506172835,0,0,0.056172839506172835,32.52407407407407,0)" xlink:href="#bi"/><use transform="matrix(0.056172839506172835,0,0,0.056172839506172835,38.14135802469136,0)" xlink:href="#bc"/><use transform="matrix(0.056172839506172835,0,0,0.056172839506172835,42.57901234567901,0)" xlink:href="#aZ"/><use transform="matrix(0.056172839506172835,0,0,0.056172839506172835,53.813580246913574,0)" xlink:href="#bd"/></g><g id="y"><use transform="matrix(0.056172839506172835,0,0,0.056172839506172835,0,0)" xlink:href="#bn"/><use transform="matrix(0.056172839506172835,0,0,0.056172839506172835,11.234567901234566,0)" xlink:href="#bj"/><use transform="matrix(0.056172839506172835,0,0,0.056172839506172835,22.469135802469133,0)" xlink:href="#bb"/><use transform="matrix(0.056172839506172835,0,0,0.056172839506172835,29.153703703703695,0)" xlink:href="#bi"/><use transform="matrix(0.056172839506172835,0,0,0.056172839506172835,34.77098765432098,0)" xlink:href="#bc"/><use transform="matrix(0.056172839506172835,0,0,0.056172839506172835,39.20864197530864,0)" xlink:href="#ba"/><use transform="matrix(0.056172839506172835,0,0,0.056172839506172835,49.31975308641975,0)" xlink:href="#bc"/><use transform="matrix(0.056172839506172835,0,0,0.056172839506172835,53.757407407407406,0)" xlink:href="#bn"/><use transform="matrix(0.056172839506172835,0,0,0.056172839506172835,64.99197530864197,0)" xlink:href="#bj"/><use transform="matrix(0.056172839506172835,0,0,0.056172839506172835,76.22654320987654,0)" xlink:href="#bi"/><use transform="matrix(0.056172839506172835,0,0,0.056172839506172835,81.84382716049382,0)" xlink:href="#aZ"/></g><g id="z"><use transform="matrix(0.056172839506172835,0,0,0.056172839506172835,0,0)" xlink:href="#bc"/><use transform="matrix(0.056172839506172835,0,0,0.056172839506172835,4.4376543209876536,0)" xlink:href="#bh"/></g><g id="A"><use transform="matrix(0.056172839506172835,0,0,0.056172839506172835,0,0)" xlink:href="#bb"/><use transform="matrix(0.056172839506172835,0,0,0.056172839506172835,6.684567901234567,0)" xlink:href="#aZ"/><use transform="matrix(0.056172839506172835,0,0,0.056172839506172835,17.919135802469135,0)" xlink:href="#bl"/><use transform="matrix(0.056172839506172835,0,0,0.056172839506172835,22.35679012345679,0)" xlink:href="#bj"/><use transform="matrix(0.056172839506172835,0,0,0.056172839506172835,33.59135802469136,0)" xlink:href="#bi"/><use transform="matrix(0.056172839506172835,0,0,0.056172839506172835,39.208641975308645,0)" xlink:href="#bc"/><use transform="matrix(0.056172839506172835,0,0,0.056172839506172835,43.6462962962963,0)" xlink:href="#bf"/><use transform="matrix(0.056172839506172835,0,0,0.056172839506172835,54.88086419753087,0)" xlink:href="#bh"/><use transform="matrix(0.056172839506172835,0,0,0.056172839506172835,66.11543209876544,0)" xlink:href="#bd"/><use transform="matrix(0.056172839506172835,0,0,0.056172839506172835,76.22654320987655,0)" xlink:href="#aY"/><use transform="matrix(0.056172839506172835,0,0,0.056172839506172835,87.46111111111112,0)" xlink:href="#bc"/><use transform="matrix(0.056172839506172835,0,0,0.056172839506172835,91.89876543209877,0)" xlink:href="#bn"/><use transform="matrix(0.056172839506172835,0,0,0.056172839506172835,103.13333333333334,0)" xlink:href="#bu"/></g><g id="B"><use transform="matrix(0.056172839506172835,0,0,0.056172839506172835,0,0)" xlink:href="#aX"/><use transform="matrix(0.056172839506172835,0,0,0.056172839506172835,12.30185185185185,0)" xlink:href="#aY"/><use transform="matrix(0.056172839506172835,0,0,0.056172839506172835,23.536419753086417,0)" xlink:href="#bc"/><use transform="matrix(0.056172839506172835,0,0,0.056172839506172835,27.97407407407407,0)" xlink:href="#bd"/></g><g id="C"><use transform="matrix(0.056172839506172835,0,0,0.056172839506172835,0,0)" xlink:href="#bc"/><use transform="matrix(0.056172839506172835,0,0,0.056172839506172835,4.4376543209876536,0)" xlink:href="#bd"/></g><path fill="#333" d="M16-82v-28h88v28H16" id="bz"/><g id="D"><use transform="matrix(0.056172839506172835,0,0,0.056172839506172835,0,0)" xlink:href="#bt"/><use transform="matrix(0.056172839506172835,0,0,0.056172839506172835,16.795679012345676,0)" xlink:href="#bj"/><use transform="matrix(0.056172839506172835,0,0,0.056172839506172835,28.030246913580243,0)" xlink:href="#bh"/><use transform="matrix(0.056172839506172835,0,0,0.056172839506172835,39.26481481481481,0)" xlink:href="#br"/><use transform="matrix(0.056172839506172835,0,0,0.056172839506172835,50.49938271604938,0)" xlink:href="#bj"/><use transform="matrix(0.056172839506172835,0,0,0.056172839506172835,61.73395061728396,0)" xlink:href="#bi"/><use transform="matrix(0.056172839506172835,0,0,0.056172839506172835,67.35123456790123,0)" xlink:href="#bf"/><use transform="matrix(0.056172839506172835,0,0,0.056172839506172835,78.5858024691358,0)" xlink:href="#bb"/><use transform="matrix(0.056172839506172835,0,0,0.056172839506172835,85.27037037037037,0)" xlink:href="#bm"/><use transform="matrix(0.056172839506172835,0,0,0.056172839506172835,95.38148148148149,0)" xlink:href="#bz"/><use transform="matrix(0.056172839506172835,0,0,0.056172839506172835,102.06604938271606,0)" xlink:href="#bf"/><use transform="matrix(0.056172839506172835,0,0,0.056172839506172835,113.30061728395063,0)" xlink:href="#bh"/><use transform="matrix(0.056172839506172835,0,0,0.056172839506172835,124.5351851851852,0)" xlink:href="#aZ"/></g><g id="E"><use transform="matrix(0.056172839506172835,0,0,0.056172839506172835,0,0)" xlink:href="#bi"/><use transform="matrix(0.056172839506172835,0,0,0.056172839506172835,5.617283950617283,0)" xlink:href="#bf"/></g><g id="F"><use transform="matrix(0.056172839506172835,0,0,0.056172839506172835,0,0)" xlink:href="#bf"/><use transform="matrix(0.056172839506172835,0,0,0.056172839506172835,11.234567901234566,0)" xlink:href="#bh"/><use transform="matrix(0.056172839506172835,0,0,0.056172839506172835,22.469135802469133,0)" xlink:href="#aZ"/><use transform="matrix(0.056172839506172835,0,0,0.056172839506172835,33.703703703703695,0)" xlink:href="#bz"/><use transform="matrix(0.056172839506172835,0,0,0.056172839506172835,40.38827160493826,0)" xlink:href="#bf"/><use transform="matrix(0.056172839506172835,0,0,0.056172839506172835,51.622839506172824,0)" xlink:href="#bb"/><use transform="matrix(0.056172839506172835,0,0,0.056172839506172835,58.30740740740739,0)" xlink:href="#bz"/><use transform="matrix(0.056172839506172835,0,0,0.056172839506172835,64.99197530864195,0)" xlink:href="#bt"/><use transform="matrix(0.056172839506172835,0,0,0.056172839506172835,81.78765432098763,0)" xlink:href="#bj"/><use transform="matrix(0.056172839506172835,0,0,0.056172839506172835,93.0222222222222,0)" xlink:href="#bh"/><use transform="matrix(0.056172839506172835,0,0,0.056172839506172835,104.25679012345677,0)" xlink:href="#bm"/></g><g id="G"><use transform="matrix(0.056172839506172835,0,0,0.056172839506172835,0,0)" xlink:href="#ba"/><use transform="matrix(0.056172839506172835,0,0,0.056172839506172835,10.11111111111111,0)" xlink:href="#bf"/><use transform="matrix(0.056172839506172835,0,0,0.056172839506172835,21.345679012345677,0)" xlink:href="#bg"/><use transform="matrix(0.056172839506172835,0,0,0.056172839506172835,32.58024691358024,0)" xlink:href="#bh"/><use transform="matrix(0.056172839506172835,0,0,0.056172839506172835,43.81481481481481,0)" xlink:href="#bi"/><use transform="matrix(0.056172839506172835,0,0,0.056172839506172835,49.432098765432094,0)" xlink:href="#bb"/><use transform="matrix(0.056172839506172835,0,0,0.056172839506172835,56.11666666666666,0)" xlink:href="#bm"/></g><g id="H"><use transform="matrix(0.056172839506172835,0,0,0.056172839506172835,0,0)" xlink:href="#bo"/><use transform="matrix(0.056172839506172835,0,0,0.056172839506172835,14.548765432098763,0)" xlink:href="#bc"/><use transform="matrix(0.056172839506172835,0,0,0.056172839506172835,18.986419753086416,0)" xlink:href="#bl"/><use transform="matrix(0.056172839506172835,0,0,0.056172839506172835,23.42407407407407,0)" xlink:href="#bl"/></g><path fill="#333" d="M108 0H70L1-190h34L89-25l56-165h34" id="bA"/><g id="I"><use transform="matrix(0.056172839506172835,0,0,0.056172839506172835,0,0)" xlink:href="#aY"/><use transform="matrix(0.056172839506172835,0,0,0.056172839506172835,11.234567901234566,0)" xlink:href="#bj"/><use transform="matrix(0.056172839506172835,0,0,0.056172839506172835,22.469135802469133,0)" xlink:href="#bA"/><use transform="matrix(0.056172839506172835,0,0,0.056172839506172835,32.58024691358024,0)" xlink:href="#aZ"/></g><g id="J"><use transform="matrix(0.056172839506172835,0,0,0.056172839506172835,0,0)" xlink:href="#bj"/><use transform="matrix(0.056172839506172835,0,0,0.056172839506172835,11.234567901234566,0)" xlink:href="#bi"/></g><g id="K"><use transform="matrix(0.056172839506172835,0,0,0.056172839506172835,0,0)" xlink:href="#bl"/><use transform="matrix(0.056172839506172835,0,0,0.056172839506172835,4.4376543209876536,0)" xlink:href="#aZ"/><use transform="matrix(0.056172839506172835,0,0,0.056172839506172835,15.67222222222222,0)" xlink:href="#bj"/><use transform="matrix(0.056172839506172835,0,0,0.056172839506172835,26.906790123456787,0)" xlink:href="#bd"/><use transform="matrix(0.056172839506172835,0,0,0.056172839506172835,37.0179012345679,0)" xlink:href="#bi"/></g><g id="L"><use transform="matrix(0.056172839506172835,0,0,0.056172839506172835,0,0)" xlink:href="#bf"/><use transform="matrix(0.056172839506172835,0,0,0.056172839506172835,11.234567901234566,0)" xlink:href="#bh"/><use transform="matrix(0.056172839506172835,0,0,0.056172839506172835,22.469135802469133,0)" xlink:href="#aZ"/></g><g id="M"><use transform="matrix(0.056172839506172835,0,0,0.056172839506172835,0,0)" xlink:href="#bj"/><use transform="matrix(0.056172839506172835,0,0,0.056172839506172835,11.234567901234566,0)" xlink:href="#bd"/><use transform="matrix(0.056172839506172835,0,0,0.056172839506172835,21.345679012345677,0)" xlink:href="#bd"/><use transform="matrix(0.056172839506172835,0,0,0.056172839506172835,31.456790123456788,0)" xlink:href="#bf"/><use transform="matrix(0.056172839506172835,0,0,0.056172839506172835,42.691358024691354,0)" xlink:href="#ba"/><use transform="matrix(0.056172839506172835,0,0,0.056172839506172835,52.80246913580247,0)" xlink:href="#bc"/><use transform="matrix(0.056172839506172835,0,0,0.056172839506172835,57.24012345679012,0)" xlink:href="#bj"/><use transform="matrix(0.056172839506172835,0,0,0.056172839506172835,68.47469135802469,0)" xlink:href="#bi"/><use transform="matrix(0.056172839506172835,0,0,0.056172839506172835,74.09197530864196,0)" xlink:href="#aZ"/><use transform="matrix(0.056172839506172835,0,0,0.056172839506172835,85.32654320987653,0)" xlink:href="#br"/></g><g id="N"><use transform="matrix(0.056172839506172835,0,0,0.056172839506172835,0,0)" xlink:href="#bp"/><use transform="matrix(0.056172839506172835,0,0,0.056172839506172835,5.617283950617283,0)" xlink:href="#bc"/><use transform="matrix(0.056172839506172835,0,0,0.056172839506172835,10.054938271604936,0)" xlink:href="#bq"/><use transform="matrix(0.056172839506172835,0,0,0.056172839506172835,21.289506172839502,0)" xlink:href="#bg"/><use transform="matrix(0.056172839506172835,0,0,0.056172839506172835,32.524074074074065,0)" xlink:href="#bb"/><use transform="matrix(0.056172839506172835,0,0,0.056172839506172835,39.20864197530863,0)" xlink:href="#aZ"/></g><g id="O"><use transform="matrix(0.056172839506172835,0,0,0.056172839506172835,0,0)" xlink:href="#bc"/><use transform="matrix(0.056172839506172835,0,0,0.056172839506172835,4.4376543209876536,0)" xlink:href="#bi"/></g><g id="P"><use transform="matrix(0.056172839506172835,0,0,0.056172839506172835,0,0)" xlink:href="#bo"/><use transform="matrix(0.056172839506172835,0,0,0.056172839506172835,14.548765432098763,0)" xlink:href="#bf"/><use transform="matrix(0.056172839506172835,0,0,0.056172839506172835,25.78333333333333,0)" xlink:href="#bg"/><use transform="matrix(0.056172839506172835,0,0,0.056172839506172835,37.0179012345679,0)" xlink:href="#bl"/><use transform="matrix(0.056172839506172835,0,0,0.056172839506172835,41.455555555555556,0)" xlink:href="#br"/></g><g id="Q"><use transform="matrix(0.056172839506172835,0,0,0.056172839506172835,0,0)" xlink:href="#bh"/><use transform="matrix(0.056172839506172835,0,0,0.056172839506172835,11.234567901234566,0)" xlink:href="#bf"/><use transform="matrix(0.056172839506172835,0,0,0.056172839506172835,22.469135802469133,0)" xlink:href="#bi"/></g><g id="R"><use transform="matrix(0.056172839506172835,0,0,0.056172839506172835,0,0)" xlink:href="#bk"/><use transform="matrix(0.056172839506172835,0,0,0.056172839506172835,11.234567901234566,0)" xlink:href="#aZ"/></g><g id="S"><use transform="matrix(0.056172839506172835,0,0,0.056172839506172835,0,0)" xlink:href="#bn"/><use transform="matrix(0.056172839506172835,0,0,0.056172839506172835,11.234567901234566,0)" xlink:href="#bb"/><use transform="matrix(0.056172839506172835,0,0,0.056172839506172835,17.919135802469135,0)" xlink:href="#aZ"/><use transform="matrix(0.056172839506172835,0,0,0.056172839506172835,29.1537037037037,0)" xlink:href="#bd"/><use transform="matrix(0.056172839506172835,0,0,0.056172839506172835,39.26481481481481,0)" xlink:href="#aZ"/><use transform="matrix(0.056172839506172835,0,0,0.056172839506172835,50.49938271604938,0)" xlink:href="#bh"/><use transform="matrix(0.056172839506172835,0,0,0.056172839506172835,61.73395061728396,0)" xlink:href="#bi"/></g><g id="T"><use transform="matrix(0.056172839506172835,0,0,0.056172839506172835,0,0)" xlink:href="#bi"/><use transform="matrix(0.056172839506172835,0,0,0.056172839506172835,5.617283950617283,0)" xlink:href="#aY"/><use transform="matrix(0.056172839506172835,0,0,0.056172839506172835,16.851851851851848,0)" xlink:href="#bc"/><use transform="matrix(0.056172839506172835,0,0,0.056172839506172835,21.289506172839502,0)" xlink:href="#bd"/></g><g id="U"><use transform="matrix(0.056172839506172835,0,0,0.056172839506172835,0,0)" xlink:href="#br"/><use transform="matrix(0.056172839506172835,0,0,0.056172839506172835,11.234567901234566,0)" xlink:href="#bj"/><use transform="matrix(0.056172839506172835,0,0,0.056172839506172835,22.469135802469133,0)" xlink:href="#bi"/><use transform="matrix(0.056172839506172835,0,0,0.056172839506172835,28.086419753086417,0)" xlink:href="#bj"/><use transform="matrix(0.056172839506172835,0,0,0.056172839506172835,39.32098765432099,0)" xlink:href="#bk"/><use transform="matrix(0.056172839506172835,0,0,0.056172839506172835,50.55555555555556,0)" xlink:href="#bj"/><use transform="matrix(0.056172839506172835,0,0,0.056172839506172835,61.790123456790134,0)" xlink:href="#bd"/><use transform="matrix(0.056172839506172835,0,0,0.056172839506172835,71.90123456790124,0)" xlink:href="#aZ"/><use transform="matrix(0.056172839506172835,0,0,0.056172839506172835,83.13580246913581,0)" xlink:href="#bw"/></g><g id="V"><use transform="matrix(0.056172839506172835,0,0,0.056172839506172835,0,0)" xlink:href="#bj"/><use transform="matrix(0.056172839506172835,0,0,0.056172839506172835,11.234567901234566,0)" xlink:href="#bh"/><use transform="matrix(0.056172839506172835,0,0,0.056172839506172835,22.469135802469133,0)" xlink:href="#br"/></g><g id="W"><use transform="matrix(0.056172839506172835,0,0,0.056172839506172835,0,0)" xlink:href="#bc"/><use transform="matrix(0.056172839506172835,0,0,0.056172839506172835,4.4376543209876536,0)" xlink:href="#bi"/></g><g id="X"><use transform="matrix(0.056172839506172835,0,0,0.056172839506172835,0,0)" xlink:href="#bt"/><use transform="matrix(0.056172839506172835,0,0,0.056172839506172835,16.795679012345676,0)" xlink:href="#bj"/><use transform="matrix(0.056172839506172835,0,0,0.056172839506172835,28.030246913580243,0)" xlink:href="#bm"/></g><g id="Y"><use transform="matrix(0.056172839506172835,0,0,0.056172839506172835,0,0)" xlink:href="#aY"/><use transform="matrix(0.056172839506172835,0,0,0.056172839506172835,11.234567901234566,0)" xlink:href="#bj"/><use transform="matrix(0.056172839506172835,0,0,0.056172839506172835,22.469135802469133,0)" xlink:href="#bA"/><use transform="matrix(0.056172839506172835,0,0,0.056172839506172835,32.58024691358024,0)" xlink:href="#aZ"/></g><g id="Z"><use transform="matrix(0.056172839506172835,0,0,0.056172839506172835,0,0)" xlink:href="#bd"/><use transform="matrix(0.056172839506172835,0,0,0.056172839506172835,10.11111111111111,0)" xlink:href="#aZ"/><use transform="matrix(0.056172839506172835,0,0,0.056172839506172835,21.345679012345677,0)" xlink:href="#bA"/><use transform="matrix(0.056172839506172835,0,0,0.056172839506172835,31.456790123456788,0)" xlink:href="#aZ"/><use transform="matrix(0.056172839506172835,0,0,0.056172839506172835,42.691358024691354,0)" xlink:href="#bb"/><use transform="matrix(0.056172839506172835,0,0,0.056172839506172835,49.37592592592592,0)" xlink:href="#bj"/><use transform="matrix(0.056172839506172835,0,0,0.056172839506172835,60.610493827160475,0)" xlink:href="#bl"/><use transform="matrix(0.056172839506172835,0,0,0.056172839506172835,65.04814814814813,0)" xlink:href="#bu"/></g><path fill="#333" d="M212-179c-10-28-35-45-73-45-59 0-87 40-87 99 0 60 29 101 89 101 43 0 62-24 78-52l27 14C228-24 195 4 139 4 59 4 22-46 18-125c-6-104 99-153 187-111 19 9 31 26 39 46" id="bB"/><g id="aa"><use transform="matrix(0.056172839506172835,0,0,0.056172839506172835,0,0)" xlink:href="#bB"/><use transform="matrix(0.056172839506172835,0,0,0.056172839506172835,14.548765432098763,0)" xlink:href="#bf"/><use transform="matrix(0.056172839506172835,0,0,0.056172839506172835,25.78333333333333,0)" xlink:href="#bh"/><use transform="matrix(0.056172839506172835,0,0,0.056172839506172835,37.0179012345679,0)" xlink:href="#bA"/><use transform="matrix(0.056172839506172835,0,0,0.056172839506172835,47.129012345679016,0)" xlink:href="#aZ"/><use transform="matrix(0.056172839506172835,0,0,0.056172839506172835,58.363580246913585,0)" xlink:href="#bb"/><use transform="matrix(0.056172839506172835,0,0,0.056172839506172835,65.04814814814816,0)" xlink:href="#bd"/><use transform="matrix(0.056172839506172835,0,0,0.056172839506172835,75.15925925925927,0)" xlink:href="#aZ"/><use transform="matrix(0.056172839506172835,0,0,0.056172839506172835,86.39382716049384,0)" xlink:href="#bl"/><use transform="matrix(0.056172839506172835,0,0,0.056172839506172835,90.83148148148149,0)" xlink:href="#bm"/><use transform="matrix(0.056172839506172835,0,0,0.056172839506172835,99.42592592592594,0)" xlink:href="#bw"/></g><g id="ab"><use transform="matrix(0.056172839506172835,0,0,0.056172839506172835,0,0)" xlink:href="#aZ"/><use transform="matrix(0.056172839506172835,0,0,0.056172839506172835,11.234567901234566,0)" xlink:href="#bA"/><use transform="matrix(0.056172839506172835,0,0,0.056172839506172835,21.345679012345677,0)" xlink:href="#aZ"/><use transform="matrix(0.056172839506172835,0,0,0.056172839506172835,32.58024691358024,0)" xlink:href="#bb"/><use transform="matrix(0.056172839506172835,0,0,0.056172839506172835,39.264814814814805,0)" xlink:href="#bm"/></g><g id="ac"><use transform="matrix(0.056172839506172835,0,0,0.056172839506172835,0,0)" xlink:href="#aZ"/><use transform="matrix(0.056172839506172835,0,0,0.056172839506172835,11.234567901234566,0)" xlink:href="#bs"/><use transform="matrix(0.056172839506172835,0,0,0.056172839506172835,21.345679012345677,0)" xlink:href="#bj"/><use transform="matrix(0.056172839506172835,0,0,0.056172839506172835,32.58024691358024,0)" xlink:href="#ba"/><use transform="matrix(0.056172839506172835,0,0,0.056172839506172835,42.691358024691354,0)" xlink:href="#bi"/><use transform="matrix(0.056172839506172835,0,0,0.056172839506172835,48.30864197530864,0)" xlink:href="#bl"/><use transform="matrix(0.056172839506172835,0,0,0.056172839506172835,52.74629629629629,0)" xlink:href="#bm"/></g><g id="ad"><use transform="matrix(0.056172839506172835,0,0,0.056172839506172835,0,0)" xlink:href="#bf"/><use transform="matrix(0.056172839506172835,0,0,0.056172839506172835,11.234567901234566,0)" xlink:href="#bh"/><use transform="matrix(0.056172839506172835,0,0,0.056172839506172835,22.469135802469133,0)" xlink:href="#aZ"/></g><g id="ae"><use transform="matrix(0.056172839506172835,0,0,0.056172839506172835,0,0)" xlink:href="#ba"/><use transform="matrix(0.056172839506172835,0,0,0.056172839506172835,10.11111111111111,0)" xlink:href="#bf"/><use transform="matrix(0.056172839506172835,0,0,0.056172839506172835,21.345679012345677,0)" xlink:href="#bg"/><use transform="matrix(0.056172839506172835,0,0,0.056172839506172835,32.58024691358024,0)" xlink:href="#bh"/><use transform="matrix(0.056172839506172835,0,0,0.056172839506172835,43.81481481481481,0)" xlink:href="#bi"/><use transform="matrix(0.056172839506172835,0,0,0.056172839506172835,49.432098765432094,0)" xlink:href="#bb"/><use transform="matrix(0.056172839506172835,0,0,0.056172839506172835,56.11666666666666,0)" xlink:href="#bm"/><use transform="matrix(0.056172839506172835,0,0,0.056172839506172835,64.71111111111111,0)" xlink:href="#bu"/></g><path fill="#a9afb8" d="M24-248c93 1 206-16 204 79-1 75-69 88-152 82V0H24v-248zm52 121c47 0 100 7 100-41 0-47-54-39-100-39v80" id="bC"/><path fill="#a9afb8" d="M135-150c-39-12-60 13-60 57V0H25l-1-190h47c2 13-1 29 3 40 6-28 27-53 61-41v41" id="bD"/><path fill="#a9afb8" d="M110-194c64 0 96 36 96 99 0 64-35 99-97 99-61 0-95-36-95-99 0-62 34-99 96-99zm-1 164c35 0 45-28 45-65 0-40-10-65-43-65-34 0-45 26-45 65 0 36 10 65 43 65" id="bE"/><path fill="#a9afb8" d="M25-224v-37h50v37H25zM75 22c2 45-34 59-81 51V38c22 5 31-5 31-27v-201h50V22" id="bF"/><path fill="#a9afb8" d="M185-48c-13 30-37 53-82 52C43 2 14-33 14-96s30-98 90-98c62 0 83 45 84 108H66c0 31 8 55 39 56 18 0 30-7 34-22zm-45-69c5-46-57-63-70-21-2 6-4 13-4 21h74" id="bG"/><path fill="#a9afb8" d="M190-63c-7 42-38 67-86 67-59 0-84-38-90-98-12-110 154-137 174-36l-49 2c-2-19-15-32-35-32-30 0-35 28-38 64-6 74 65 87 74 30" id="bH"/><path fill="#a9afb8" d="M115-3C79 11 28 4 28-45v-112H4v-33h27l15-45h31v45h36v33H77v99c-1 23 16 31 38 25v30" id="bI"/><path fill="#a9afb8" d="M-4 44V30h207v14H-4" id="bJ"/><path fill="#a9afb8" d="M182-182c0 78-84 86-111 141h115V0H12c-6-101 99-100 120-180 1-22-12-31-33-32-23 0-32 14-35 34l-49-3c5-45 32-70 84-70 51 0 83 22 83 69" id="bK"/><g id="af"><use transform="matrix(0.0728395061728395,0,0,0.0728395061728395,0,0)" xlink:href="#bC"/><use transform="matrix(0.0728395061728395,0,0,0.0728395061728395,17.48148148148148,0)" xlink:href="#bD"/><use transform="matrix(0.0728395061728395,0,0,0.0728395061728395,27.679012345679013,0)" xlink:href="#bE"/><use transform="matrix(0.0728395061728395,0,0,0.0728395061728395,43.63086419753086,0)" xlink:href="#bF"/><use transform="matrix(0.0728395061728395,0,0,0.0728395061728395,50.91481481481481,0)" xlink:href="#bG"/><use transform="matrix(0.0728395061728395,0,0,0.0728395061728395,65.48271604938272,0)" xlink:href="#bH"/><use transform="matrix(0.0728395061728395,0,0,0.0728395061728395,80.05061728395061,0)" xlink:href="#bI"/><use transform="matrix(0.0728395061728395,0,0,0.0728395061728395,88.71851851851852,0)" xlink:href="#bJ"/><use transform="matrix(0.0728395061728395,0,0,0.0728395061728395,103.28641975308642,0)" xlink:href="#bK"/></g><path fill="#a9afb8" d="M24-248c120-7 223 5 221 122C244-46 201 0 124 0H24v-248zM76-40c74 7 117-18 117-86 0-67-45-88-117-82v168" id="bL"/><path fill="#a9afb8" d="M133-34C117-15 103 5 69 4 32 3 11-16 11-54c-1-60 55-63 116-61 1-26-3-47-28-47-18 1-26 9-28 27l-52-2c7-38 36-58 82-57s74 22 75 68l1 82c-1 14 12 18 25 15v27c-30 8-71 5-69-32zm-48 3c29 0 43-24 42-57-32 0-66-3-65 30 0 17 8 27 23 27" id="bM"/><g id="ag"><use transform="matrix(0.0728395061728395,0,0,0.0728395061728395,0,0)" xlink:href="#bL"/><use transform="matrix(0.0728395061728395,0,0,0.0728395061728395,18.86543209876543,0)" xlink:href="#bM"/><use transform="matrix(0.0728395061728395,0,0,0.0728395061728395,33.43333333333333,0)" xlink:href="#bI"/><use transform="matrix(0.0728395061728395,0,0,0.0728395061728395,42.10123456790124,0)" xlink:href="#bM"/></g><path fill="#a9afb8" d="M230 0l2-204L168 0h-37L68-204 70 0H24v-248h70l56 185 57-185h69V0h-46" id="bN"/><path fill="#a9afb8" d="M88-194c31-1 46 15 58 34l-1-101h50l1 261h-48c-2-10 0-23-3-31C134-8 116 4 84 4 32 4 16-41 15-95c0-56 19-97 73-99zm17 164c33 0 40-30 41-66 1-37-9-64-41-64s-38 30-39 65c0 43 13 65 39 65" id="bO"/><path fill="#a9afb8" d="M25 0v-261h50V0H25" id="bP"/><g id="ah"><use transform="matrix(0.0728395061728395,0,0,0.0728395061728395,0,0)" xlink:href="#bN"/><use transform="matrix(0.0728395061728395,0,0,0.0728395061728395,21.77901234567901,0)" xlink:href="#bE"/><use transform="matrix(0.0728395061728395,0,0,0.0728395061728395,37.73086419753086,0)" xlink:href="#bO"/><use transform="matrix(0.0728395061728395,0,0,0.0728395061728395,53.68271604938271,0)" xlink:href="#bG"/><use transform="matrix(0.0728395061728395,0,0,0.0728395061728395,68.25061728395062,0)" xlink:href="#bP"/></g><path fill="#333" d="M181-108h460V0H181C109 0 51-58 51-130v-320c0-72 58-130 130-130h458v108H181c-12 0-22 10-22 22v320c0 12 10 22 22 22" id="bQ"/><path fill="#333" d="M182-580h324v108H182c-12 0-22 10-22 22V0H52v-450c0-72 58-130 130-130" id="bR"/><path fill="#333" d="M52 0v-580h108V0H52zm0-770h108v108H52v-108" id="bS"/><path fill="#333" d="M508-580c79 2 138 64 130 152H530c2-23-1-44-22-44H178c-38 4-22 69-22 106 0 12 10 22 22 22h330c72 0 130 58 130 130v84C638-58 580 0 508 0H178C99-2 40-64 48-152h108c-2 23 1 44 22 44h330c38-4 22-69 22-106 0-12-10-22-22-22H178c-72 0-130-58-130-130v-84c0-72 58-130 130-130h330" id="bT"/><path fill="#333" d="M774 0v108H54V0h720" id="bU"/><path fill="#333" d="M181-580h330c72 0 130 58 130 130v320C641-58 583 0 511 0H181C109 0 51-58 51-130v-320c0-72 58-130 130-130zm330 108H181c-12 0-22 10-22 22v320c0 12 10 22 22 22h330c12 0 22-10 22-22v-320c0-12-10-22-22-22" id="bV"/><path fill="#333" d="M535-580h108v450C643-58 585 0 513 0H183C111 0 53-58 53-130v-450h108v450c0 12 10 22 22 22h330c12 0 22-10 22-22v-450" id="bW"/><path fill="#333" d="M514-580c72 0 130 58 130 130V0H536v-450c0-12-10-22-22-22H184c-12 0-22 10-22 22V0H54v-580h460" id="bX"/><path fill="#333" d="M399-472H161v342c0 12 10 22 22 22h216V0H183C111 0 53-58 53-130v-640h108v190h238v108" id="bY"/><path fill="#333" d="M511-580c72 0 130 58 130 130v214H159v106c0 12 10 22 22 22h460V0H181C109 0 51-58 51-130v-320c0-72 58-130 130-130h330zM159-344h374v-106c0-12-10-22-22-22H181c-12 0-22 10-22 22v106" id="bZ"/><g id="ai"><use transform="matrix(0.026888888888888882,0,0,0.026888888888888882,0,0)" xlink:href="#bQ"/><use transform="matrix(0.026888888888888882,0,0,0.026888888888888882,18.68777777777777,0)" xlink:href="#bR"/><use transform="matrix(0.026888888888888882,0,0,0.026888888888888882,32.45488888888888,0)" xlink:href="#bS"/><use transform="matrix(0.026888888888888882,0,0,0.026888888888888882,38.04777777777777,0)" xlink:href="#bT"/><use transform="matrix(0.026888888888888882,0,0,0.026888888888888882,56.49355555555554,0)" xlink:href="#bS"/><use transform="matrix(0.026888888888888882,0,0,0.026888888888888882,62.08644444444443,0)" xlink:href="#bT"/><use transform="matrix(0.026888888888888882,0,0,0.026888888888888882,80.5322222222222,0)" xlink:href="#bU"/><use transform="matrix(0.026888888888888882,0,0,0.026888888888888882,102.7962222222222,0)" xlink:href="#bQ"/><use transform="matrix(0.026888888888888882,0,0,0.026888888888888882,121.48399999999997,0)" xlink:href="#bV"/><use transform="matrix(0.026888888888888882,0,0,0.026888888888888882,139.68777777777774,0)" xlink:href="#bW"/><use transform="matrix(0.026888888888888882,0,0,0.026888888888888882,158.3755555555555,0)" xlink:href="#bX"/><use transform="matrix(0.026888888888888882,0,0,0.026888888888888882,177.09022222222217,0)" xlink:href="#bY"/><use transform="matrix(0.026888888888888882,0,0,0.026888888888888882,188.1146666666666,0)" xlink:href="#bR"/><use transform="matrix(0.026888888888888882,0,0,0.026888888888888882,201.88177777777773,0)" xlink:href="#bS"/><use transform="matrix(0.026888888888888882,0,0,0.026888888888888882,207.47466666666662,0)" xlink:href="#bZ"/><use transform="matrix(0.026888888888888882,0,0,0.026888888888888882,226.08177777777772,0)" xlink:href="#bT"/></g><path fill="#333" d="M178-433c64 0 122 58 119 122-3 75-50 122-119 122-64 0-122-47-122-122 0-67 58-122 122-122zm0 205c44 0 83-39 83-83 0-42-42-83-83-83-42 0-83 42-83 83 0 44 39 83 83 83" id="ca"/><use transform="matrix(0.018,0,0,0.018,0,0)" xlink:href="#ca" id="aj"/><path fill="#333" d="M172-82h470V0H172C105 0 51-54 51-121v-338c0-67 54-121 121-121h468v82H172c-21 0-39 18-39 39v338c0 21 18 39 39 39" id="cb"/><path fill="#333" d="M173-580h326v82H173c-21 0-39 18-39 39V0H52v-459c0-67 54-121 121-121" id="cc"/><path fill="#333" d="M52 0v-580h82V0H52zm0-770h82v82H52v-82" id="cd"/><path fill="#333" d="M517-580c70 1 125 56 122 129h-83c3-27-15-46-39-47H169c-55 1-39 76-39 128 0 21 18 39 39 39h348c68 0 122 54 122 121v89C639-54 585 0 517 0H169C100-1 45-56 48-129h82c-3 27 15 46 39 47h348c55-1 39-76 39-128 0-21-18-39-39-39H169c-67 0-121-54-121-121v-89c0-67 54-121 121-121h348" id="ce"/><path fill="#333" d="M782 0v82H54V0h728" id="cf"/><path fill="#333" d="M524-580c67 0 121 54 121 121V0h-82v-459c0-21-18-39-39-39H176c-22 0-40 18-40 39V0H54v-580h470" id="cg"/><path fill="#333" d="M521-580c68 0 122 54 122 121V0H173C106 0 52-54 52-121v-210h508c-9-60 26-167-39-167H52v-82h469zm39 498v-167H134c8 60-26 167 39 167h387" id="ch"/><path fill="#333" d="M820-580c68 0 121 54 121 121V0h-81v-459c0-21-18-39-40-39H579c-22 0-39 18-39 39V0h-83v-459c0-21-18-39-39-39H176c-21 0-39 18-39 39V0H54v-580h766" id="ci"/><path fill="#333" d="M520-580c68 0 122 54 122 121v210H133c8 60-26 167 39 167h470V0H172C105 0 51-54 51-121v-338c0-67 54-121 121-121h348zM133-331h426c-9-60 26-167-39-167H172c-64 5-30 107-39 167" id="cj"/><g id="al"><use transform="matrix(0.018,0,0,0.018,0,0)" xlink:href="#cb"/><use transform="matrix(0.018,0,0,0.018,12.51,0)" xlink:href="#cc"/><use transform="matrix(0.018,0,0,0.018,21.726,0)" xlink:href="#cd"/><use transform="matrix(0.018,0,0,0.018,25.47,0)" xlink:href="#ce"/><use transform="matrix(0.018,0,0,0.018,37.818,0)" xlink:href="#cd"/><use transform="matrix(0.018,0,0,0.018,41.562,0)" xlink:href="#ce"/><use transform="matrix(0.018,0,0,0.018,53.91,0)" xlink:href="#cf"/><use transform="matrix(0.018,0,0,0.018,68.814,0)" xlink:href="#cg"/><use transform="matrix(0.018,0,0,0.018,81.34199999999998,0)" xlink:href="#ch"/><use transform="matrix(0.018,0,0,0.018,93.47399999999999,0)" xlink:href="#ci"/><use transform="matrix(0.018,0,0,0.018,111.07799999999999,0)" xlink:href="#cj"/></g><path fill="#333" d="M386-498H135v377c0 21 18 39 39 39h212V0H174C106 0 53-54 53-121v-649h82v190h251v82" id="ck"/><path fill="#333" d="M631 107c0 68-53 122-121 122H148v-83h362c60-2 33-90 39-146H162C95 0 41-54 41-121v-338c0-67 54-121 121-121h348c68 0 121 54 121 121v566zM162-82h348c21 0 39-18 39-39v-338c0-21-18-39-39-39H162c-21 0-39 18-39 39v338c0 21 18 39 39 39" id="cl"/><g id="am"><use transform="matrix(0.018,0,0,0.018,0,0)" xlink:href="#cd"/><use transform="matrix(0.018,0,0,0.018,3.4739999999999998,0)" xlink:href="#cg"/><use transform="matrix(0.018,0,0,0.018,16.002,0)" xlink:href="#ck"/><use transform="matrix(0.018,0,0,0.018,23.381999999999998,0)" xlink:href="#cj"/><use transform="matrix(0.018,0,0,0.018,35.837999999999994,0)" xlink:href="#cl"/><use transform="matrix(0.018,0,0,0.018,47.86199999999999,0)" xlink:href="#cj"/><use transform="matrix(0.018,0,0,0.018,60.22799999999998,0)" xlink:href="#cc"/></g><path fill="#333" d="M532-770h82V0H145C77 0 23-54 23-121v-338c0-67 54-121 122-121h387v-190zM145-82h348c21 0 39-18 39-39v-338c0-21-18-39-39-39H145c-21 0-39 18-39 39v338c0 21 18 39 39 39" id="cm"/><path fill="#333" d="M531-580h107L396-295 639 0H531L342-232C284-161 213-72 154 0H46l242-295L46-580h108l188 220c56-66 131-153 189-220" id="cn"/><g id="an"><use transform="matrix(0.018,0,0,0.018,0,0)" xlink:href="#cb"/><use transform="matrix(0.018,0,0,0.018,12.51,0)" xlink:href="#cc"/><use transform="matrix(0.018,0,0,0.018,21.726,0)" xlink:href="#cd"/><use transform="matrix(0.018,0,0,0.018,25.47,0)" xlink:href="#ce"/><use transform="matrix(0.018,0,0,0.018,37.818,0)" xlink:href="#cd"/><use transform="matrix(0.018,0,0,0.018,41.562,0)" xlink:href="#ce"/><use transform="matrix(0.018,0,0,0.018,53.91,0)" xlink:href="#cf"/><use transform="matrix(0.018,0,0,0.018,68.814,0)" xlink:href="#cd"/><use transform="matrix(0.018,0,0,0.018,72.288,0)" xlink:href="#cg"/><use transform="matrix(0.018,0,0,0.018,84.81600000000002,0)" xlink:href="#cm"/><use transform="matrix(0.018,0,0,0.018,96.462,0)" xlink:href="#cj"/><use transform="matrix(0.018,0,0,0.018,108.61200000000001,0)" xlink:href="#cn"/></g><g id="ao"><use transform="matrix(0.018,0,0,0.018,0,0)" xlink:href="#ck"/><use transform="matrix(0.018,0,0,0.018,7.379999999999999,0)" xlink:href="#cj"/><use transform="matrix(0.018,0,0,0.018,19.529999999999998,0)" xlink:href="#cn"/><use transform="matrix(0.018,0,0,0.018,31.985999999999997,0)" xlink:href="#ck"/></g><path fill="#333" d="M172-580h348c68 0 122 54 122 121v338C642-54 588 0 520 0H172C105 0 51-54 51-121v-338c0-67 54-121 121-121zm348 82H172c-21 0-39 18-39 39v338c0 21 18 39 39 39h348c22 0 39-18 39-39v-338c0-21-17-39-39-39" id="co"/><path fill="#333" d="M749-448c3 27-18 46-8 70 62 46 40 159 40 257C781-54 727 0 660 0H175C102-2 47-58 53-137h83c-4 32 12 55 39 55h485c21 0 39-18 39-39v-167c0-21-18-39-39-39H191v-82h437c21 0 39-18 39-39v-151c0-21-18-39-39-39H175c-31 1-44 29-39 65H53c-9-87 46-148 122-148h453c68 0 121 54 121 122v151" id="cp"/><g id="ap"><use transform="matrix(0.018,0,0,0.018,0,0)" xlink:href="#cb"/><use transform="matrix(0.018,0,0,0.018,12.51,0)" xlink:href="#cc"/><use transform="matrix(0.018,0,0,0.018,21.726,0)" xlink:href="#cd"/><use transform="matrix(0.018,0,0,0.018,25.47,0)" xlink:href="#ce"/><use transform="matrix(0.018,0,0,0.018,37.818,0)" xlink:href="#cd"/><use transform="matrix(0.018,0,0,0.018,41.562,0)" xlink:href="#ce"/><use transform="matrix(0.018,0,0,0.018,53.91,0)" xlink:href="#cf"/><use transform="matrix(0.018,0,0,0.018,68.814,0)" xlink:href="#cd"/><use transform="matrix(0.018,0,0,0.018,72.55799999999999,0)" xlink:href="#ce"/><use transform="matrix(0.018,0,0,0.018,84.90599999999999,0)" xlink:href="#co"/><use transform="matrix(0.018,0,0,0.018,97.362,0)" xlink:href="#cp"/></g><path fill="#333" d="M183-662c-34 1-19 51-22 82h238v108H161V0H53v-640c0-72 58-130 130-130h216v108H183" id="cq"/><path fill="#333" d="M631-450v550c0 72-58 130-130 130H143V122h358c12 0 22-10 22-22V0H171C99 0 41-58 41-130v-320c0-72 58-130 130-130h330c72 0 130 58 130 130zM171-108h330c12 0 22-10 22-22v-320c0-12-10-22-22-22H171c-12 0-22 10-22 22v320c0 12 10 22 22 22" id="cr"/><g id="aq"><use transform="matrix(0.026888888888888882,0,0,0.026888888888888882,0,0)" xlink:href="#cq"/><use transform="matrix(0.026888888888888882,0,0,0.026888888888888882,11.07822222222222,0)" xlink:href="#bS"/><use transform="matrix(0.026888888888888882,0,0,0.026888888888888882,16.671111111111106,0)" xlink:href="#cr"/><use transform="matrix(0.026888888888888882,0,0,0.026888888888888882,34.60599999999999,0)" xlink:href="#bW"/><use transform="matrix(0.026888888888888882,0,0,0.026888888888888882,53.29377777777776,0)" xlink:href="#bR"/><use transform="matrix(0.026888888888888882,0,0,0.026888888888888882,67.06088888888887,0)" xlink:href="#bZ"/><use transform="matrix(0.026888888888888882,0,0,0.026888888888888882,85.66799999999998,0)" xlink:href="#bT"/><use transform="matrix(0.026888888888888882,0,0,0.026888888888888882,104.11377777777776,0)" xlink:href="#bU"/><use transform="matrix(0.026888888888888882,0,0,0.026888888888888882,126.37777777777775,0)" xlink:href="#bT"/><use transform="matrix(0.026888888888888882,0,0,0.026888888888888882,144.82355555555552,0)" xlink:href="#bV"/><use transform="matrix(0.026888888888888882,0,0,0.026888888888888882,163.02733333333327,0)" xlink:href="#bW"/><use transform="matrix(0.026888888888888882,0,0,0.026888888888888882,181.71511111111104,0)" xlink:href="#bR"/><use transform="matrix(0.026888888888888882,0,0,0.026888888888888882,195.48222222222216,0)" xlink:href="#bQ"/><use transform="matrix(0.026888888888888882,0,0,0.026888888888888882,213.7666666666666,0)" xlink:href="#bZ"/><use transform="matrix(0.026888888888888882,0,0,0.026888888888888882,232.37377777777766,0)" xlink:href="#bT"/></g><path fill="#333" d="M174-688c-49 0-39 60-39 108h251v82H135V0H53v-649c0-68 53-121 121-121h212v82H174" id="cs"/><path fill="#333" d="M562-580h82v459C644-54 590 0 522 0H174C107 0 53-54 53-121v-459h82v459c0 21 18 39 39 39h348c22 0 40-18 40-39v-459" id="ct"/><g id="ar"><use transform="matrix(0.018,0,0,0.018,0,0)" xlink:href="#cs"/><use transform="matrix(0.018,0,0,0.018,7.326,0)" xlink:href="#cd"/><use transform="matrix(0.018,0,0,0.018,11.070000000000002,0)" xlink:href="#cl"/><use transform="matrix(0.018,0,0,0.018,22.914,0)" xlink:href="#ct"/><use transform="matrix(0.018,0,0,0.018,35.424,0)" xlink:href="#cc"/><use transform="matrix(0.018,0,0,0.018,44.63999999999999,0)" xlink:href="#cj"/><use transform="matrix(0.018,0,0,0.018,57.096000000000004,0)" xlink:href="#cf"/><use transform="matrix(0.018,0,0,0.018,72,0)" xlink:href="#ce"/><use transform="matrix(0.018,0,0,0.018,84.348,0)" xlink:href="#co"/><use transform="matrix(0.018,0,0,0.018,96.38999999999999,0)" xlink:href="#ct"/><use transform="matrix(0.018,0,0,0.018,108.9,0)" xlink:href="#cc"/><use transform="matrix(0.018,0,0,0.018,118.11600000000001,0)" xlink:href="#cb"/><use transform="matrix(0.018,0,0,0.018,130.176,0)" xlink:href="#cj"/></g><g id="as"><use transform="matrix(0.018,0,0,0.018,0,0)" xlink:href="#cs"/><use transform="matrix(0.018,0,0,0.018,7.326,0)" xlink:href="#cd"/><use transform="matrix(0.018,0,0,0.018,11.070000000000002,0)" xlink:href="#cl"/><use transform="matrix(0.018,0,0,0.018,22.914,0)" xlink:href="#ct"/><use transform="matrix(0.018,0,0,0.018,35.424,0)" xlink:href="#cc"/><use transform="matrix(0.018,0,0,0.018,44.63999999999999,0)" xlink:href="#cj"/><use transform="matrix(0.018,0,0,0.018,57.096000000000004,0)" xlink:href="#cf"/><use transform="matrix(0.018,0,0,0.018,72,0)" xlink:href="#cm"/><use transform="matrix(0.018,0,0,0.018,84.006,0)" xlink:href="#ch"/><use transform="matrix(0.018,0,0,0.018,96.498,0)" xlink:href="#ck"/><use transform="matrix(0.018,0,0,0.018,103.87799999999999,0)" xlink:href="#cj"/></g><path fill="#333" d="M661-580h96L436 0h-95C235-195 127-386 21-580h96L389-80" id="cu"/><path fill="#333" d="M524-580c66 0 121 54 121 121V0h-82v-459c0-21-18-39-39-39H176c-22 0-40 18-40 39V0H54v-770h82v190h388" id="cv"/><g id="at"><use transform="matrix(0.018,0,0,0.018,0,0)" xlink:href="#cu"/><use transform="matrix(0.018,0,0,0.018,14.219999999999999,0)" xlink:href="#ch"/><use transform="matrix(0.018,0,0,0.018,26.621999999999996,0)" xlink:href="#cc"/><use transform="matrix(0.018,0,0,0.018,35.838,0)" xlink:href="#cb"/><use transform="matrix(0.018,0,0,0.018,48.077999999999996,0)" xlink:href="#cv"/><use transform="matrix(0.018,0,0,0.018,60.192,0)" xlink:href="#ch"/><use transform="matrix(0.018,0,0,0.018,72.594,0)" xlink:href="#cc"/></g><path d="M174-688c-49 0-39 60-39 108h251v82H135V0H53v-649c0-68 53-121 121-121h212v82H174" id="cw"/><path d="M52 0v-580h82V0H52zm0-770h82v82H52v-82" id="cx"/><path d="M631 107c0 68-53 122-121 122H148v-83h362c60-2 33-90 39-146H162C95 0 41-54 41-121v-338c0-67 54-121 121-121h348c68 0 121 54 121 121v566zM162-82h348c21 0 39-18 39-39v-338c0-21-18-39-39-39H162c-21 0-39 18-39 39v338c0 21 18 39 39 39" id="cy"/><path d="M562-580h82v459C644-54 590 0 522 0H174C107 0 53-54 53-121v-459h82v459c0 21 18 39 39 39h348c22 0 40-18 40-39v-459" id="cz"/><path d="M173-580h326v82H173c-21 0-39 18-39 39V0H52v-459c0-67 54-121 121-121" id="cA"/><path d="M520-580c68 0 122 54 122 121v210H133c8 60-26 167 39 167h470V0H172C105 0 51-54 51-121v-338c0-67 54-121 121-121h348zM133-331h426c-9-60 26-167-39-167H172c-64 5-30 107-39 167" id="cB"/><path d="M782 0v82H54V0h728" id="cC"/><path d="M524-580c67 0 121 54 121 121V0h-82v-459c0-21-18-39-39-39H176c-22 0-40 18-40 39V0H54v-580h470" id="cD"/><path d="M521-580c68 0 122 54 122 121V0H173C106 0 52-54 52-121v-210h508c-9-60 26-167-39-167H52v-82h469zm39 498v-167H134c8 60-26 167 39 167h387" id="cE"/><path d="M820-580c68 0 121 54 121 121V0h-81v-459c0-21-18-39-40-39H579c-22 0-39 18-39 39V0h-83v-459c0-21-18-39-39-39H176c-21 0-39 18-39 39V0H54v-580h766" id="cF"/><g id="au"><use transform="matrix(0.018,0,0,0.018,0,0)" xlink:href="#cw"/><use transform="matrix(0.018,0,0,0.018,7.326,0)" xlink:href="#cx"/><use transform="matrix(0.018,0,0,0.018,11.070000000000002,0)" xlink:href="#cy"/><use transform="matrix(0.018,0,0,0.018,22.914,0)" xlink:href="#cz"/><use transform="matrix(0.018,0,0,0.018,35.424,0)" xlink:href="#cA"/><use transform="matrix(0.018,0,0,0.018,44.63999999999999,0)" xlink:href="#cB"/><use transform="matrix(0.018,0,0,0.018,57.096000000000004,0)" xlink:href="#cC"/><use transform="matrix(0.018,0,0,0.018,72,0)" xlink:href="#cD"/><use transform="matrix(0.018,0,0,0.018,84.52799999999999,0)" xlink:href="#cE"/><use transform="matrix(0.018,0,0,0.018,96.66,0)" xlink:href="#cF"/><use transform="matrix(0.018,0,0,0.018,114.264,0)" xlink:href="#cB"/></g><path d="M386-498H135v377c0 21 18 39 39 39h212V0H174C106 0 53-54 53-121v-649h82v190h251v82" id="cG"/><path d="M531-580h107L396-295 639 0H531L342-232C284-161 213-72 154 0H46l242-295L46-580h108l188 220c56-66 131-153 189-220" id="cH"/><g id="av"><use transform="matrix(0.018,0,0,0.018,0,0)" xlink:href="#cG"/><use transform="matrix(0.018,0,0,0.018,7.379999999999999,0)" xlink:href="#cB"/><use transform="matrix(0.018,0,0,0.018,19.529999999999998,0)" xlink:href="#cH"/><use transform="matrix(0.018,0,0,0.018,31.985999999999997,0)" xlink:href="#cG"/></g><g id="aw"><use transform="matrix(0.026888888888888882,0,0,0.026888888888888882,0,0)" xlink:href="#bQ"/><use transform="matrix(0.026888888888888882,0,0,0.026888888888888882,18.68777777777777,0)" xlink:href="#bR"/><use transform="matrix(0.026888888888888882,0,0,0.026888888888888882,32.45488888888888,0)" xlink:href="#bS"/><use transform="matrix(0.026888888888888882,0,0,0.026888888888888882,38.04777777777777,0)" xlink:href="#bT"/><use transform="matrix(0.026888888888888882,0,0,0.026888888888888882,56.49355555555554,0)" xlink:href="#bS"/><use transform="matrix(0.026888888888888882,0,0,0.026888888888888882,62.08644444444443,0)" xlink:href="#bT"/><use transform="matrix(0.026888888888888882,0,0,0.026888888888888882,80.5322222222222,0)" xlink:href="#bU"/><use transform="matrix(0.026888888888888882,0,0,0.026888888888888882,102.7962222222222,0)" xlink:href="#cq"/><use transform="matrix(0.026888888888888882,0,0,0.026888888888888882,113.87444444444442,0)" xlink:href="#bS"/><use transform="matrix(0.026888888888888882,0,0,0.026888888888888882,119.4673333333333,0)" xlink:href="#cr"/><use transform="matrix(0.026888888888888882,0,0,0.026888888888888882,137.40222222222218,0)" xlink:href="#bW"/><use transform="matrix(0.026888888888888882,0,0,0.026888888888888882,156.08999999999995,0)" xlink:href="#bR"/><use transform="matrix(0.026888888888888882,0,0,0.026888888888888882,169.85711111111107,0)" xlink:href="#bZ"/><use transform="matrix(0.026888888888888882,0,0,0.026888888888888882,188.46422222222216,0)" xlink:href="#bT"/></g><g id="ax"><use transform="matrix(0.018,0,0,0.018,0,0)" xlink:href="#cs"/><use transform="matrix(0.018,0,0,0.018,7.326,0)" xlink:href="#cd"/><use transform="matrix(0.018,0,0,0.018,11.070000000000002,0)" xlink:href="#cl"/><use transform="matrix(0.018,0,0,0.018,22.914,0)" xlink:href="#ct"/><use transform="matrix(0.018,0,0,0.018,35.424,0)" xlink:href="#cc"/><use transform="matrix(0.018,0,0,0.018,44.63999999999999,0)" xlink:href="#cj"/><use transform="matrix(0.018,0,0,0.018,57.096000000000004,0)" xlink:href="#cf"/><use transform="matrix(0.018,0,0,0.018,72,0)" xlink:href="#cg"/><use transform="matrix(0.018,0,0,0.018,84.52799999999999,0)" xlink:href="#ch"/><use transform="matrix(0.018,0,0,0.018,96.66,0)" xlink:href="#ci"/><use transform="matrix(0.018,0,0,0.018,114.264,0)" xlink:href="#cj"/></g><path fill="#333" d="M52-770h82v649c1 58 83 34 137 39V0h-98C106 0 52-54 52-121v-649" id="cI"/><g id="ay"><use transform="matrix(0.018,0,0,0.018,0,0)" xlink:href="#cs"/><use transform="matrix(0.018,0,0,0.018,7.326,0)" xlink:href="#cd"/><use transform="matrix(0.018,0,0,0.018,11.070000000000002,0)" xlink:href="#cl"/><use transform="matrix(0.018,0,0,0.018,22.914,0)" xlink:href="#ct"/><use transform="matrix(0.018,0,0,0.018,35.424,0)" xlink:href="#cc"/><use transform="matrix(0.018,0,0,0.018,44.63999999999999,0)" xlink:href="#cj"/><use transform="matrix(0.018,0,0,0.018,57.096000000000004,0)" xlink:href="#cf"/><use transform="matrix(0.018,0,0,0.018,72,0)" xlink:href="#cu"/><use transform="matrix(0.018,0,0,0.018,86.22,0)" xlink:href="#ch"/><use transform="matrix(0.018,0,0,0.018,98.532,0)" xlink:href="#cI"/><use transform="matrix(0.018,0,0,0.018,103.96799999999999,0)" xlink:href="#ct"/><use transform="matrix(0.018,0,0,0.018,116.20799999999998,0)" xlink:href="#cj"/></g><use transform="matrix(0.056172839506172835,0,0,0.056172839506172835,0,0)" xlink:href="#by" id="az"/><g id="aA"><use transform="matrix(0.056172839506172835,0,0,0.056172839506172835,0,0)" xlink:href="#bb"/><use transform="matrix(0.056172839506172835,0,0,0.056172839506172835,6.684567901234567,0)" xlink:href="#aZ"/><use transform="matrix(0.056172839506172835,0,0,0.056172839506172835,17.919135802469135,0)" xlink:href="#bl"/><use transform="matrix(0.056172839506172835,0,0,0.056172839506172835,22.35679012345679,0)" xlink:href="#bj"/><use transform="matrix(0.056172839506172835,0,0,0.056172839506172835,33.59135802469136,0)" xlink:href="#bi"/><use transform="matrix(0.056172839506172835,0,0,0.056172839506172835,39.208641975308645,0)" xlink:href="#aZ"/><use transform="matrix(0.056172839506172835,0,0,0.056172839506172835,50.44320987654321,0)" xlink:href="#br"/></g><g id="aB"><use transform="matrix(0.056172839506172835,0,0,0.056172839506172835,0,0)" xlink:href="#bi"/><use transform="matrix(0.056172839506172835,0,0,0.056172839506172835,5.617283950617283,0)" xlink:href="#bf"/></g><g id="aC"><use transform="matrix(0.056172839506172835,0,0,0.056172839506172835,0,0)" xlink:href="#bp"/><use transform="matrix(0.056172839506172835,0,0,0.056172839506172835,5.617283950617283,0)" xlink:href="#bc"/><use transform="matrix(0.056172839506172835,0,0,0.056172839506172835,10.054938271604936,0)" xlink:href="#bq"/><use transform="matrix(0.056172839506172835,0,0,0.056172839506172835,21.289506172839502,0)" xlink:href="#bg"/><use transform="matrix(0.056172839506172835,0,0,0.056172839506172835,32.524074074074065,0)" xlink:href="#bb"/><use transform="matrix(0.056172839506172835,0,0,0.056172839506172835,39.20864197530863,0)" xlink:href="#aZ"/><use transform="matrix(0.056172839506172835,0,0,0.056172839506172835,50.44320987654319,0)" xlink:href="#bd"/><use transform="matrix(0.056172839506172835,0,0,0.056172839506172835,60.5543209876543,0)" xlink:href="#be"/><use transform="matrix(0.056172839506172835,0,0,0.056172839506172835,71.78888888888888,0)" xlink:href="#bd"/><use transform="matrix(0.056172839506172835,0,0,0.056172839506172835,81.89999999999999,0)" xlink:href="#bf"/><use transform="matrix(0.056172839506172835,0,0,0.056172839506172835,93.13456790123456,0)" xlink:href="#bg"/><use transform="matrix(0.056172839506172835,0,0,0.056172839506172835,104.36913580246913,0)" xlink:href="#bb"/><use transform="matrix(0.056172839506172835,0,0,0.056172839506172835,111.0537037037037,0)" xlink:href="#ba"/><use transform="matrix(0.056172839506172835,0,0,0.056172839506172835,121.16481481481483,0)" xlink:href="#aZ"/><use transform="matrix(0.056172839506172835,0,0,0.056172839506172835,132.3993827160494,0)" xlink:href="#bd"/></g><g id="aD"><use transform="matrix(0.056172839506172835,0,0,0.056172839506172835,0,0)" xlink:href="#bk"/><use transform="matrix(0.056172839506172835,0,0,0.056172839506172835,11.234567901234566,0)" xlink:href="#bm"/></g><g id="aE"><use transform="matrix(0.056172839506172835,0,0,0.056172839506172835,0,0)" xlink:href="#bi"/><use transform="matrix(0.056172839506172835,0,0,0.056172839506172835,5.617283950617283,0)" xlink:href="#aY"/><use transform="matrix(0.056172839506172835,0,0,0.056172839506172835,16.851851851851848,0)" xlink:href="#aZ"/></g><g id="aF"><use transform="matrix(0.056172839506172835,0,0,0.056172839506172835,0,0)" xlink:href="#bp"/><use transform="matrix(0.056172839506172835,0,0,0.056172839506172835,5.617283950617283,0)" xlink:href="#bc"/><use transform="matrix(0.056172839506172835,0,0,0.056172839506172835,10.054938271604936,0)" xlink:href="#bq"/><use transform="matrix(0.056172839506172835,0,0,0.056172839506172835,21.289506172839502,0)" xlink:href="#bg"/><use transform="matrix(0.056172839506172835,0,0,0.056172839506172835,32.524074074074065,0)" xlink:href="#bb"/><use transform="matrix(0.056172839506172835,0,0,0.056172839506172835,39.20864197530863,0)" xlink:href="#aZ"/><use transform="matrix(0.056172839506172835,0,0,0.056172839506172835,50.44320987654319,0)" xlink:href="#be"/><use transform="matrix(0.056172839506172835,0,0,0.056172839506172835,61.67777777777776,0)" xlink:href="#bh"/><use transform="matrix(0.056172839506172835,0,0,0.056172839506172835,72.91234567901233,0)" xlink:href="#bj"/><use transform="matrix(0.056172839506172835,0,0,0.056172839506172835,84.1469135802469,0)" xlink:href="#bt"/><use transform="matrix(0.056172839506172835,0,0,0.056172839506172835,100.94259259259258,0)" xlink:href="#aZ"/></g><g id="aG"><use transform="matrix(0.056172839506172835,0,0,0.056172839506172835,0,0)" xlink:href="#bf"/><use transform="matrix(0.056172839506172835,0,0,0.056172839506172835,11.234567901234566,0)" xlink:href="#bh"/><use transform="matrix(0.056172839506172835,0,0,0.056172839506172835,22.469135802469133,0)" xlink:href="#aZ"/><use transform="matrix(0.056172839506172835,0,0,0.056172839506172835,33.703703703703695,0)" xlink:href="#bz"/><use transform="matrix(0.056172839506172835,0,0,0.056172839506172835,40.38827160493826,0)" xlink:href="#bf"/><use transform="matrix(0.056172839506172835,0,0,0.056172839506172835,51.622839506172824,0)" xlink:href="#bb"/><use transform="matrix(0.056172839506172835,0,0,0.056172839506172835,58.30740740740739,0)" xlink:href="#bz"/><use transform="matrix(0.056172839506172835,0,0,0.056172839506172835,64.99197530864195,0)" xlink:href="#bt"/><use transform="matrix(0.056172839506172835,0,0,0.056172839506172835,81.78765432098763,0)" xlink:href="#bj"/><use transform="matrix(0.056172839506172835,0,0,0.056172839506172835,93.0222222222222,0)" xlink:href="#bh"/><use transform="matrix(0.056172839506172835,0,0,0.056172839506172835,104.25679012345677,0)" xlink:href="#bm"/></g><g id="aH"><use transform="matrix(0.056172839506172835,0,0,0.056172839506172835,0,0)" xlink:href="#aZ"/><use transform="matrix(0.056172839506172835,0,0,0.056172839506172835,11.234567901234566,0)" xlink:href="#bj"/><use transform="matrix(0.056172839506172835,0,0,0.056172839506172835,22.469135802469133,0)" xlink:href="#ba"/><use transform="matrix(0.056172839506172835,0,0,0.056172839506172835,32.58024691358024,0)" xlink:href="#aY"/></g><g id="aI"><use transform="matrix(0.056172839506172835,0,0,0.056172839506172835,0,0)" xlink:href="#bh"/><use transform="matrix(0.056172839506172835,0,0,0.056172839506172835,11.234567901234566,0)" xlink:href="#bj"/><use transform="matrix(0.056172839506172835,0,0,0.056172839506172835,22.469135802469133,0)" xlink:href="#bt"/><use transform="matrix(0.056172839506172835,0,0,0.056172839506172835,39.26481481481481,0)" xlink:href="#aZ"/></g><g id="aJ"><use transform="matrix(0.056172839506172835,0,0,0.056172839506172835,0,0)" xlink:href="#bd"/><use transform="matrix(0.056172839506172835,0,0,0.056172839506172835,10.11111111111111,0)" xlink:href="#bf"/><use transform="matrix(0.056172839506172835,0,0,0.056172839506172835,21.345679012345677,0)" xlink:href="#bg"/><use transform="matrix(0.056172839506172835,0,0,0.056172839506172835,32.58024691358024,0)" xlink:href="#bb"/><use transform="matrix(0.056172839506172835,0,0,0.056172839506172835,39.264814814814805,0)" xlink:href="#ba"/><use transform="matrix(0.056172839506172835,0,0,0.056172839506172835,49.37592592592591,0)" xlink:href="#aZ"/><use transform="matrix(0.056172839506172835,0,0,0.056172839506172835,60.610493827160475,0)" xlink:href="#bw"/></g><g id="aK"><use transform="matrix(0.056172839506172835,0,0,0.056172839506172835,0,0)" xlink:href="#bk"/><use transform="matrix(0.056172839506172835,0,0,0.056172839506172835,11.234567901234566,0)" xlink:href="#bg"/><use transform="matrix(0.056172839506172835,0,0,0.056172839506172835,22.469135802469133,0)" xlink:href="#bi"/></g><g id="aL"><use transform="matrix(0.056172839506172835,0,0,0.056172839506172835,0,0)" xlink:href="#ba"/><use transform="matrix(0.056172839506172835,0,0,0.056172839506172835,10.11111111111111,0)" xlink:href="#bf"/><use transform="matrix(0.056172839506172835,0,0,0.056172839506172835,21.345679012345677,0)" xlink:href="#bg"/><use transform="matrix(0.056172839506172835,0,0,0.056172839506172835,32.58024691358024,0)" xlink:href="#bl"/><use transform="matrix(0.056172839506172835,0,0,0.056172839506172835,37.017901234567894,0)" xlink:href="#br"/></g><g id="aM"><use transform="matrix(0.056172839506172835,0,0,0.056172839506172835,0,0)" xlink:href="#bd"/><use transform="matrix(0.056172839506172835,0,0,0.056172839506172835,10.11111111111111,0)" xlink:href="#aZ"/><use transform="matrix(0.056172839506172835,0,0,0.056172839506172835,21.345679012345677,0)" xlink:href="#bA"/><use transform="matrix(0.056172839506172835,0,0,0.056172839506172835,31.456790123456788,0)" xlink:href="#aZ"/><use transform="matrix(0.056172839506172835,0,0,0.056172839506172835,42.691358024691354,0)" xlink:href="#bb"/><use transform="matrix(0.056172839506172835,0,0,0.056172839506172835,49.37592592592592,0)" xlink:href="#bj"/><use transform="matrix(0.056172839506172835,0,0,0.056172839506172835,60.610493827160475,0)" xlink:href="#bl"/></g><g id="aN"><use transform="matrix(0.056172839506172835,0,0,0.056172839506172835,0,0)" xlink:href="#bd"/><use transform="matrix(0.056172839506172835,0,0,0.056172839506172835,10.11111111111111,0)" xlink:href="#bf"/><use transform="matrix(0.056172839506172835,0,0,0.056172839506172835,21.345679012345677,0)" xlink:href="#bg"/><use transform="matrix(0.056172839506172835,0,0,0.056172839506172835,32.58024691358024,0)" xlink:href="#bb"/><use transform="matrix(0.056172839506172835,0,0,0.056172839506172835,39.264814814814805,0)" xlink:href="#ba"/><use transform="matrix(0.056172839506172835,0,0,0.056172839506172835,49.37592592592591,0)" xlink:href="#aZ"/><use transform="matrix(0.056172839506172835,0,0,0.056172839506172835,60.610493827160475,0)" xlink:href="#bd"/></g><path fill="#333" d="M0 4l72-265h28L28 4H0" id="cJ"/><g id="aO"><use transform="matrix(0.056172839506172835,0,0,0.056172839506172835,0,0)" xlink:href="#bj"/><use transform="matrix(0.056172839506172835,0,0,0.056172839506172835,11.234567901234566,0)" xlink:href="#bh"/><use transform="matrix(0.056172839506172835,0,0,0.056172839506172835,22.469135802469133,0)" xlink:href="#br"/><use transform="matrix(0.056172839506172835,0,0,0.056172839506172835,33.703703703703695,0)" xlink:href="#cJ"/><use transform="matrix(0.056172839506172835,0,0,0.056172839506172835,39.32098765432098,0)" xlink:href="#bf"/><use transform="matrix(0.056172839506172835,0,0,0.056172839506172835,50.55555555555554,0)" xlink:href="#bb"/></g><g id="aP"><use transform="matrix(0.056172839506172835,0,0,0.056172839506172835,0,0)" xlink:href="#bd"/><use transform="matrix(0.056172839506172835,0,0,0.056172839506172835,10.11111111111111,0)" xlink:href="#bf"/><use transform="matrix(0.056172839506172835,0,0,0.056172839506172835,21.345679012345677,0)" xlink:href="#bg"/><use transform="matrix(0.056172839506172835,0,0,0.056172839506172835,32.58024691358024,0)" xlink:href="#bb"/><use transform="matrix(0.056172839506172835,0,0,0.056172839506172835,39.264814814814805,0)" xlink:href="#ba"/><use transform="matrix(0.056172839506172835,0,0,0.056172839506172835,49.37592592592591,0)" xlink:href="#aZ"/></g><g id="aQ"><use transform="matrix(0.056172839506172835,0,0,0.056172839506172835,0,0)" xlink:href="#br"/><use transform="matrix(0.056172839506172835,0,0,0.056172839506172835,11.234567901234566,0)" xlink:href="#bj"/><use transform="matrix(0.056172839506172835,0,0,0.056172839506172835,22.469135802469133,0)" xlink:href="#bi"/><use transform="matrix(0.056172839506172835,0,0,0.056172839506172835,28.086419753086417,0)" xlink:href="#aZ"/><use transform="matrix(0.056172839506172835,0,0,0.056172839506172835,39.32098765432099,0)" xlink:href="#bd"/></g><path fill="#333" d="M68-36c1 33-1 63-14 82H32c9-13 17-26 17-46H33v-36h35zM33-154v-36h35v36H33" id="cK"/><g id="aR"><use transform="matrix(0.056172839506172835,0,0,0.056172839506172835,0,0)" xlink:href="#bA"/><use transform="matrix(0.056172839506172835,0,0,0.056172839506172835,10.11111111111111,0)" xlink:href="#bc"/><use transform="matrix(0.056172839506172835,0,0,0.056172839506172835,14.548765432098763,0)" xlink:href="#ba"/><use transform="matrix(0.056172839506172835,0,0,0.056172839506172835,24.659876543209876,0)" xlink:href="#aZ"/><use transform="matrix(0.056172839506172835,0,0,0.056172839506172835,35.894444444444446,0)" xlink:href="#bz"/><use transform="matrix(0.056172839506172835,0,0,0.056172839506172835,42.57901234567901,0)" xlink:href="#bA"/><use transform="matrix(0.056172839506172835,0,0,0.056172839506172835,52.69012345679012,0)" xlink:href="#aZ"/><use transform="matrix(0.056172839506172835,0,0,0.056172839506172835,63.92469135802469,0)" xlink:href="#bb"/><use transform="matrix(0.056172839506172835,0,0,0.056172839506172835,70.60925925925926,0)" xlink:href="#bd"/><use transform="matrix(0.056172839506172835,0,0,0.056172839506172835,80.72037037037038,0)" xlink:href="#bj"/><use transform="matrix(0.056172839506172835,0,0,0.056172839506172835,91.95493827160495,0)" xlink:href="#cK"/></g><g id="aS"><use transform="matrix(0.056172839506172835,0,0,0.056172839506172835,0,0)" xlink:href="#bd"/><use transform="matrix(0.056172839506172835,0,0,0.056172839506172835,10.11111111111111,0)" xlink:href="#bf"/><use transform="matrix(0.056172839506172835,0,0,0.056172839506172835,21.345679012345677,0)" xlink:href="#bg"/><use transform="matrix(0.056172839506172835,0,0,0.056172839506172835,32.58024691358024,0)" xlink:href="#bb"/><use transform="matrix(0.056172839506172835,0,0,0.056172839506172835,39.264814814814805,0)" xlink:href="#ba"/><use transform="matrix(0.056172839506172835,0,0,0.056172839506172835,49.37592592592591,0)" xlink:href="#aZ"/></g><g id="aT"><use transform="matrix(0.056172839506172835,0,0,0.056172839506172835,0,0)" xlink:href="#ba"/><use transform="matrix(0.056172839506172835,0,0,0.056172839506172835,10.11111111111111,0)" xlink:href="#bf"/><use transform="matrix(0.056172839506172835,0,0,0.056172839506172835,21.345679012345677,0)" xlink:href="#bh"/><use transform="matrix(0.056172839506172835,0,0,0.056172839506172835,32.58024691358024,0)" xlink:href="#bi"/><use transform="matrix(0.056172839506172835,0,0,0.056172839506172835,38.197530864197525,0)" xlink:href="#bb"/><use transform="matrix(0.056172839506172835,0,0,0.056172839506172835,44.88209876543209,0)" xlink:href="#bc"/><use transform="matrix(0.056172839506172835,0,0,0.056172839506172835,49.319753086419745,0)" xlink:href="#bk"/><use transform="matrix(0.056172839506172835,0,0,0.056172839506172835,60.5543209876543,0)" xlink:href="#bg"/><use transform="matrix(0.056172839506172835,0,0,0.056172839506172835,71.78888888888888,0)" xlink:href="#bi"/><use transform="matrix(0.056172839506172835,0,0,0.056172839506172835,77.40617283950616,0)" xlink:href="#aZ"/></g><g id="aU"><use transform="matrix(0.056172839506172835,0,0,0.056172839506172835,0,0)" xlink:href="#bp"/><use transform="matrix(0.056172839506172835,0,0,0.056172839506172835,5.617283950617283,0)" xlink:href="#bc"/><use transform="matrix(0.056172839506172835,0,0,0.056172839506172835,10.054938271604936,0)" xlink:href="#bq"/><use transform="matrix(0.056172839506172835,0,0,0.056172839506172835,21.289506172839502,0)" xlink:href="#bg"/><use transform="matrix(0.056172839506172835,0,0,0.056172839506172835,32.524074074074065,0)" xlink:href="#bb"/><use transform="matrix(0.056172839506172835,0,0,0.056172839506172835,39.20864197530863,0)" xlink:href="#aZ"/><use transform="matrix(0.056172839506172835,0,0,0.056172839506172835,50.44320987654319,0)" xlink:href="#bd"/></g><g id="aV"><use transform="matrix(0.056172839506172835,0,0,0.056172839506172835,0,0)" xlink:href="#bf"/><use transform="matrix(0.056172839506172835,0,0,0.056172839506172835,11.234567901234566,0)" xlink:href="#bh"/></g><g id="aW"><use transform="matrix(0.056172839506172835,0,0,0.056172839506172835,0,0)" xlink:href="#br"/><use transform="matrix(0.056172839506172835,0,0,0.056172839506172835,11.234567901234566,0)" xlink:href="#bj"/><use transform="matrix(0.056172839506172835,0,0,0.056172839506172835,22.469135802469133,0)" xlink:href="#bi"/><use transform="matrix(0.056172839506172835,0,0,0.056172839506172835,28.086419753086417,0)" xlink:href="#aZ"/><use transform="matrix(0.056172839506172835,0,0,0.056172839506172835,39.32098765432099,0)" xlink:href="#bd"/><use transform="matrix(0.056172839506172835,0,0,0.056172839506172835,49.4320987654321,0)" xlink:href="#bu"/></g></defs></g></svg>